<?xml version="1.0" standalone="no"?>
<!DOCTYPE svg PUBLIC "-//W3C//DTD SVG 1.1//EN" "http://www.w3.org/Graphics/SVG/1.1/DTD/svg11.dtd" >
<svg xmlns="http://www.w3.org/2000/svg" xmlns:xlink="http://www.w3.org/1999/xlink" version="1.1">
<metadata></metadata>
<defs>
<font id="liberation_monobold_italic" horiz-adv-x="1229" >
<font-face units-per-em="2048" ascent="1638" descent="-410" />
<missing-glyph horiz-adv-x="500" />
<glyph horiz-adv-x="0" />
<glyph unicode="&#xd;" />
<glyph unicode=" " />
<glyph unicode="!" d="M363 0l52 270h288l-52 -270h-288zM478 426l147 923h294l-211 -923h-230z" />
<glyph unicode="&#x22;" d="M346 844l88 641h273l-162 -641h-199zM802 844l88 641h275l-164 -641h-199z" />
<glyph unicode="#" d="M24 362l29 149h206l133 324h-227l29 148h259l150 366h153l-149 -366h308l150 366h153l-149 -366h185l-29 -148h-217l-132 -324h237l-29 -149h-270l-148 -362h-155l149 362h-309l-148 -362h-153l148 362h-174zM412 511h309l133 324h-309z" />
<glyph unicode="$" d="M40 389l265 47q-1 -48 6.5 -87.5t29 -68.5t59 -47.5t97.5 -24.5l76 391q-2 2 -13.5 4.5t-15.5 2.5q-66 16 -128 38.5t-110 58t-77.5 88t-29.5 129.5q0 44 10 91q18 91 63 156.5t112.5 108.5t153.5 65t185 26l26 134h109l-26 -134q105 -4 176.5 -28t116 -67.5t65.5 -107 t25 -147.5l-272 -39q3 172 -149 193l-69 -352q5 -2 10.5 -2t10.5 -2q73 -18 142.5 -40.5t124 -59.5t87.5 -92t33 -138q0 -21 -2.5 -44t-7.5 -48q-16 -85 -57.5 -154.5t-110 -120t-165 -80t-223.5 -34.5l-34 -175h-109l33 172q-113 4 -192 31t-129 76t-73 119.5t-23 161.5z M467 977q0 -31 12 -51.5t32.5 -35t48.5 -25t61 -22.5l64 332q-54 -4 -91.5 -18t-63 -35.5t-39.5 -49t-20 -57.5q-4 -19 -4 -38zM606 208q108 7 174 50t83 131q4 19 4 39q0 36 -15 59t-41 39t-60 26.5t-73 22.5z" />
<glyph unicode="%" d="M-44 0l1195 1353h177l-1197 -1353h-175zM82 912q0 50 12 113q19 99 54 163.5t81.5 103t103 54t118.5 15.5q48 0 90 -10.5t73 -36t48.5 -67.5t17.5 -106q0 -50 -12 -116q-18 -96 -53.5 -161t-82 -105t-102 -57.5t-115.5 -17.5q-50 0 -93 12t-74 39t-48.5 70.5t-17.5 106.5 zM259 931q0 -57 21.5 -82t63.5 -25q50 0 88.5 46.5t59.5 154.5q6 29 8.5 53.5t2.5 44.5q0 57 -21 80t-60 23q-56 0 -93 -45.5t-59 -155.5q-5 -28 -8 -51t-3 -43zM603 216q0 50 12 113q19 99 54 163.5t81.5 103t102.5 54t118 15.5q48 0 90 -10.5t73 -36t49 -68t18 -106.5 q0 -50 -12 -115q-19 -96 -54 -161t-81.5 -105t-102 -57.5t-115.5 -17.5q-50 0 -93 12t-74 39t-48.5 70.5t-17.5 106.5zM780 235q0 -57 21.5 -82t63.5 -25q50 0 88.5 46.5t59.5 154.5q6 29 8.5 53.5t2.5 44.5q0 57 -21 80t-60 23q-56 0 -93 -45.5t-59 -155.5q-5 -28 -8 -51 t-3 -43z" />
<glyph unicode="&#x26;" d="M-19 275q0 23 2.5 46t7.5 48q14 70 49.5 131.5t86.5 113.5t114 93.5t131 71.5q-13 42 -20 87.5t-7 91.5q0 23 2 45t6 43q12 63 42.5 119.5t82 99t125 67.5t172.5 25q65 0 118 -15t91 -44t58.5 -70.5t20.5 -95.5q0 -27 -6 -59q-13 -69 -55 -123.5t-102 -98.5t-133 -80.5 t-148 -68.5q31 -82 68.5 -156t87.5 -146q54 77 96.5 157.5t74.5 166.5l198 -27q-42 -112 -102.5 -223.5t-136.5 -211.5q35 -37 75.5 -55t79.5 -18q23 0 50 4.5t46 12.5l-38 -196q-22 -11 -49.5 -16t-49.5 -5q-49 0 -90 9.5t-75 25t-62 36.5t-51 44q-36 -24 -79 -46.5 t-91 -39.5t-101.5 -27t-111.5 -10q-100 0 -171.5 21.5t-117 60.5t-67 93t-21.5 119zM230 320q0 -34 10 -63t31.5 -50t54.5 -32.5t78 -11.5q31 0 60.5 7t56 17.5t50 24.5t41.5 27q-57 82 -106.5 172t-85.5 188q-33 -17 -63 -40t-55 -51.5t-42.5 -62.5t-24.5 -72 q-3 -14 -4 -27t-1 -26zM556 986q0 -33 5.5 -65.5t15.5 -61.5q50 21 94.5 42.5t80 46.5t59.5 55.5t31 67.5q3 17 3 31q0 42 -25.5 67.5t-78.5 25.5q-74 0 -120.5 -41.5t-59.5 -109.5q-3 -14 -4 -28.5t-1 -29.5z" />
<glyph unicode="'" d="M574 844l88 641h273l-162 -641h-199z" />
<glyph unicode="(" d="M305 181q0 82 9.5 168.5t27.5 181.5q28 143 69.5 267.5t100.5 240t136 225t176 220.5h281q-102 -116 -181 -229t-138 -229t-100 -238.5t-67 -257.5q-17 -91 -26 -174t-9 -163q0 -161 37 -311.5t113 -306.5h-281q-74 148 -111 295.5t-37 310.5z" />
<glyph unicode=")" d="M119 -425q103 117 182 229.5t138 228.5t100 238.5t67 258.5q17 90 26 173t9 163q0 162 -37 312t-114 306h281q37 -74 65 -147.5t46.5 -147.5t28 -151t9.5 -158t-9 -167.5t-28 -181.5q-27 -142 -69 -267.5t-101 -241.5t-136.5 -226t-176.5 -221h-281z" />
<glyph unicode="*" d="M332 1116l106 197l219 -104l35 274h215l-71 -274l255 104l30 -197l-262 -61l145 -213l-208 -121l-97 252l-198 -252l-162 123l231 211z" />
<glyph unicode="+" d="M101 569v224h399v408h226v-408h402v-224h-402v-408h-226v408h-399z" />
<glyph unicode="," d="M82 -363l298 662h315l-440 -662h-173z" />
<glyph unicode="-" d="M299 409l47 244h580l-47 -244h-580z" />
<glyph unicode="." d="M365 0l59 305h289l-59 -305h-289z" />
<glyph unicode="/" d="M-20 -20l1113 1504h228l-1109 -1504h-232z" />
<glyph unicode="0" d="M114 408q0 58 7 124.5t22 142.5q39 201 102.5 335t145.5 214t180.5 113t208.5 33q82 0 153 -21t123.5 -69.5t82 -129t29.5 -198.5q0 -119 -31 -277q-37 -191 -101.5 -323.5t-147.5 -215t-181.5 -119.5t-204.5 -37q-85 0 -156.5 23.5t-123 74.5t-80 132.5t-28.5 197.5z M389 393q0 -105 41 -148.5t117 -43.5q55 0 100 23.5t82.5 79t68.5 146.5t57 225q36 184 36 288q0 52 -10.5 88t-30.5 58t-48.5 31.5t-65.5 9.5q-59 0 -105 -23t-83 -78t-67 -146.5t-57 -227.5q-17 -91 -26 -160t-9 -122zM511 555l48 249h215l-48 -249h-215z" />
<glyph unicode="1" d="M44 0l41 209h389l173 891q-27 -40 -74 -75.5t-106 -61.5t-125.5 -41.5t-132.5 -15.5l42 214q74 0 141.5 17t126 47.5t107 72.5t84.5 92h266l-221 -1140h323l-41 -209h-993z" />
<glyph unicode="2" d="M18 0l38 195q69 105 154.5 190t174.5 155.5t175 129.5t156 112.5t116.5 104.5t57.5 105q3 18 3 35q0 56 -39.5 87.5t-118.5 31.5q-90 0 -147 -48.5t-90 -145.5l-280 16q26 83 71.5 156t113.5 128t160.5 86.5t212.5 31.5q101 0 177.5 -22t127.5 -61t77 -93.5t26 -119.5 q0 -36 -7 -70q-17 -89 -70.5 -162.5t-127 -138t-159 -122.5t-166.5 -114t-150 -113.5t-109 -122.5h654l-45 -231h-986z" />
<glyph unicode="3" d="M59 329v19.5t1 19.5l290 25q-5 -91 42 -139.5t157 -48.5q50 0 93.5 12.5t77.5 36.5t56.5 59t31.5 80q2 9 3 18t1 17q0 45 -24.5 73.5t-61.5 44t-81 21t-82 5.5h-98l44 227h92q42 0 88.5 7.5t87.5 27.5t71.5 54t40.5 87q3 18 3 34q0 62 -44 99.5t-126 37.5 q-87 0 -150 -40.5t-89 -128.5l-277 20q31 99 87.5 169.5t131 115.5t163 66.5t182.5 21.5q109 0 188 -23t130 -63t75 -93.5t24 -114.5q0 -17 -2 -33t-5 -33q-11 -57 -38.5 -107.5t-72.5 -91.5t-107.5 -71t-143.5 -45l-1 -4q74 -9 127.5 -32t88 -57t50.5 -77t16 -90 q0 -29 -6 -59q-18 -90 -65 -164t-122 -126t-175.5 -80.5t-224.5 -28.5q-129 0 -214.5 29t-137.5 77.5t-73.5 112t-21.5 133.5z" />
<glyph unicode="4" d="M22 287l41 211l760 851h314l-166 -853h188l-40 -209h-188l-56 -287h-268l56 287h-641zM298 496h405l80 411q3 17 9.5 44.5t13 56.5t13.5 55.5t12 41.5q-7 -11 -22.5 -31.5t-33.5 -44t-36.5 -46.5t-33.5 -40z" />
<glyph unicode="5" d="M67 336v16l286 23q1 -33 10 -64t30 -55t56 -38.5t89 -14.5q53 0 98.5 16t81.5 47t61 77t37 105q6 30 6 58q0 79 -47.5 125t-137.5 46q-70 0 -120.5 -26.5t-88.5 -64.5h-274l197 763h847l-40 -209h-592l-87 -326q50 37 119 63.5t154 26.5q89 0 157 -24.5t114 -69.5 t70 -108t24 -140q0 -50 -11 -108q-19 -100 -70 -187t-129 -150.5t-182.5 -100t-232.5 -36.5q-115 0 -196 27.5t-132 75.5t-74 113t-23 140z" />
<glyph unicode="6" d="M127 442q0 106 24 230q34 177 94 308t143 218t189 129.5t232 42.5q84 0 150 -17.5t112 -56.5t72 -100.5t32 -149.5l-272 -37q-5 74 -44.5 106.5t-98.5 32.5q-114 0 -199 -108.5t-126 -317.5q60 75 147.5 115t188.5 40q80 0 142.5 -22.5t105.5 -64t66 -101.5t23 -135 q0 -26 -3 -52.5t-8 -55.5q-20 -101 -66.5 -186.5t-118.5 -147.5t-167.5 -97t-212.5 -35q-100 0 -176 31.5t-127 91t-76.5 145t-25.5 194.5zM399 398q0 -42 11 -78.5t32 -63.5t52 -42t72 -15q47 0 87.5 17t72.5 48.5t54.5 75.5t32.5 98q4 17 5.5 33.5t1.5 31.5 q0 76 -42 121.5t-128 45.5q-37 0 -76.5 -12t-73 -37t-59 -63t-35.5 -90q-4 -18 -5.5 -35.5t-1.5 -34.5z" />
<glyph unicode="7" d="M231 0q30 152 95.5 297t158.5 284t209.5 273t248.5 264h-700l45 231h961l-43 -223q-129 -139 -240 -274.5t-199.5 -273.5t-150.5 -281.5t-92 -296.5h-293z" />
<glyph unicode="8" d="M69 296q0 41 9 84q14 71 49 128t83 98t104.5 66.5t113.5 34.5l1 4q-98 23 -149.5 89t-51.5 153q0 29 6 59q15 79 58 144.5t111.5 113t161 74t207.5 26.5q107 0 185 -21t128.5 -58.5t74.5 -89.5t24 -115q0 -18 -2 -37t-6 -39q-10 -50 -36.5 -98t-67.5 -88.5t-94 -69.5 t-115 -41l-1 -4q52 -8 95 -28.5t74 -53t48 -76t17 -97.5q0 -37 -7 -72q-16 -85 -60.5 -158.5t-117 -127.5t-173.5 -85t-232 -31q-114 0 -196.5 23.5t-136 65.5t-79 100t-25.5 127zM364 333q0 -34 9.5 -63t31.5 -49t56.5 -31.5t85.5 -11.5q63 0 107 17.5t74 48t48 72t27 89.5 q6 27 6 55q0 30 -9 57.5t-30 48t-57 33t-90 12.5q-60 0 -104.5 -18t-74.5 -48t-47.5 -67.5t-25.5 -76.5q-7 -34 -7 -68zM512 943q0 -26 7 -50.5t24 -43t47 -30t75 -11.5q60 0 100 18t64.5 45.5t36.5 60.5t18 63q2 14 3.5 27t1.5 25q0 27 -8 50.5t-26 40t-47.5 26t-73.5 9.5 q-52 0 -89.5 -14t-63.5 -38t-41.5 -56.5t-22.5 -69.5q-2 -13 -3.5 -25.5t-1.5 -26.5z" />
<glyph unicode="9" d="M94 311l272 37q5 -75 43.5 -111t107.5 -36q113 0 199.5 105t128.5 313q-28 -39 -67 -69t-84 -50t-94 -30.5t-97 -10.5q-78 0 -139 23.5t-103.5 67t-64.5 105.5t-22 139q0 56 12 119q21 107 71 191.5t124.5 143.5t172 90.5t213.5 31.5q194 0 295 -105t101 -320 q0 -110 -27 -248q-34 -176 -95 -310t-145.5 -224.5t-191.5 -136.5t-233 -46q-91 0 -159.5 19t-115 59t-72 103t-30.5 150zM464 845q0 -38 10 -70.5t30 -56t50 -37t71 -13.5q39 0 79 13t74.5 39.5t60.5 66t36 92.5q4 20 6 39t2 37q0 42 -10 77.5t-30.5 61.5t-51.5 41t-73 15 q-47 0 -87.5 -17.5t-72.5 -49t-54.5 -75.5t-32.5 -97q-7 -32 -7 -66z" />
<glyph unicode=":" d="M365 0l59 305h289l-59 -305h-289zM517 780l59 305h289l-59 -305h-289z" />
<glyph unicode=";" d="M150 -363l298 662h315l-440 -662h-173zM526 780l59 305h289l-59 -305h-289z" />
<glyph unicode="&#x3c;" d="M101 516v322l1027 391v-228l-833 -325l833 -324v-227z" />
<glyph unicode="=" d="M101 291v221h1027v-221h-1027zM101 842v223h1027v-223h-1027z" />
<glyph unicode="&#x3e;" d="M101 125v227l832 324l-832 325v228l1027 -391v-322z" />
<glyph unicode="?" d="M152 941q29 89 81.5 167t129 136t177.5 92t226 34q107 0 189 -22.5t138 -63t85 -98t29 -128.5q0 -37 -7 -72q-16 -80 -57.5 -138t-96.5 -103t-115.5 -81.5t-114.5 -74.5t-94.5 -81t-54.5 -102h-267q16 64 45 114t65.5 89.5t78.5 70.5t84.5 58.5t82.5 53t72.5 52.5 t55 58.5t30.5 71.5q3 17 3 31q0 60 -48.5 99.5t-142.5 39.5q-51 0 -97 -15.5t-84 -43.5t-66.5 -68t-43.5 -88zM313 0l52 270h289l-52 -270h-289z" />
<glyph unicode="@" d="M11 249q0 61 7 127t21 138q41 209 117 386.5t181.5 307.5t236.5 203t281 73q104 0 179.5 -37.5t124.5 -104.5t72.5 -157.5t23.5 -197.5q0 -112 -24 -232q-28 -144 -72 -263.5t-100 -205.5t-122 -134t-138 -48q-25 0 -46.5 5.5t-37 18.5t-24.5 33.5t-9 50.5q0 11 1 23 t4 26q0 2 1.5 9t3.5 14.5t3.5 14.5t2.5 10h-6q-22 -39 -52.5 -76t-65.5 -65.5t-75 -46t-82 -17.5q-46 0 -77.5 18t-51 49t-28.5 73.5t-9 91.5q0 36 4 74.5t12 78.5q15 76 41 151t61.5 143t78.5 126.5t92.5 101t103 66.5t109.5 24q37 0 62.5 -13t41 -36t22 -54.5t4.5 -69.5h5 l63 151h135l-198 -507q-16 -42 -31 -82.5t-28 -77t-22 -67t-13 -51.5q-3 -18 -3 -30q0 -25 11 -31.5t28 -6.5q38 0 76 38t73 107t66 166.5t54 215.5q21 108 21 205q0 88 -18 161.5t-54 126.5t-90.5 82.5t-128.5 29.5q-118 0 -222 -66t-189 -180.5t-147 -268.5t-96 -329 q-13 -65 -19 -124.5t-6 -114.5q0 -99 20.5 -178.5t60.5 -135.5t100 -86t138 -30q59 0 112 12.5t102 33.5t95 50t91 62l52 -97q-51 -37 -106 -71t-115.5 -60.5t-126.5 -42t-139 -15.5q-102 0 -181 36.5t-132.5 105.5t-81.5 167.5t-28 222.5zM404 339q0 -48 13.5 -78.5 t48.5 -30.5q37 0 74 25t72.5 72.5t69 115t62.5 152.5q7 19 16 45t17 53t15 51.5t10 39.5q10 50 10 89q0 106 -81 106q-51 0 -99 -45t-89.5 -115.5t-72.5 -157t-48 -170.5q-8 -41 -13 -80t-5 -72z" />
<glyph unicode="A" d="M-105 0l705 1349h344l180 -1349h-294l-28 330h-456l-156 -330h-295zM451 552h332l-34 380q-3 36 -5 73.5t-3.5 69.5t-2.5 57t-1 35q-4 -10 -14.5 -35t-24.5 -57t-31 -69.5t-34 -73.5z" />
<glyph unicode="B" d="M32 0l262 1349h525q91 0 162.5 -16t121 -48t75.5 -81.5t26 -115.5q0 -18 -2 -37.5t-6 -40.5q-22 -115 -103.5 -193.5t-223.5 -107.5q145 -16 219.5 -81.5t74.5 -174.5q0 -34 -7 -68q-20 -103 -72 -176t-125 -119.5t-162 -68t-183 -21.5h-582zM370 219h257q40 0 78 9 t69.5 30.5t55 58.5t34.5 93q5 28 5 47q0 38 -14 64t-38 42t-56.5 23t-68.5 7h-250zM485 811h211q164 0 196 159q5 28 5 47q0 61 -37.5 87t-103.5 26h-209z" />
<glyph unicode="C" d="M83 449q0 108 24 232q33 167 92 295t146 216t203 133t261 45q104 0 179 -29t125.5 -80.5t78.5 -123t38 -156.5l-285 -66q-4 48 -16.5 89t-34.5 71t-53.5 46.5t-72.5 16.5q-136 0 -226.5 -115.5t-134.5 -341.5q-21 -109 -21 -195q0 -134 51.5 -204t157.5 -70q45 0 85.5 18 t76.5 50.5t67.5 77.5t58.5 98l263 -52q-51 -99 -112.5 -177.5t-136 -133t-161.5 -84t-189 -29.5q-122 0 -210 32.5t-144.5 93.5t-83 148t-26.5 195z" />
<glyph unicode="D" d="M30 0l262 1349h361q133 0 235 -27.5t171 -84t104.5 -143t35.5 -205.5q0 -94 -22 -204q-33 -168 -97.5 -296t-157.5 -214.5t-212 -130.5t-259 -44h-421zM369 228h102q162 0 263 114.5t146 342.5q18 93 18 164q0 144 -73.5 208t-220.5 64h-61z" />
<glyph unicode="E" d="M32 0l262 1349h968l-44 -228h-673l-63 -324h612l-44 -228h-612l-67 -341h714l-44 -228h-1009z" />
<glyph unicode="F" d="M62 0l262 1349h939l-44 -228h-644l-75 -384h621l-44 -228h-621l-99 -509h-295z" />
<glyph unicode="G" d="M84 460q0 52 6 107t17 114q33 167 90.5 295.5t143 216t199.5 132.5t259 45q100 0 170 -27t116 -76.5t70.5 -118.5t32.5 -153l-284 -54q-8 100 -45.5 148.5t-101.5 48.5q-72 0 -128 -29.5t-98 -87t-72.5 -143t-52.5 -197.5q-21 -111 -21 -198q0 -131 49.5 -199t152.5 -68 q38 0 73 8.5t64 20t51 24t34 21.5l46 235h-274l42 218h544l-108 -558q-44 -32 -102 -68t-126 -66.5t-145 -50.5t-160 -20q-114 0 -197.5 34.5t-137.5 97.5t-80.5 151.5t-26.5 196.5z" />
<glyph unicode="H" d="M33 0l262 1349h295l-103 -531h363l103 531h295l-262 -1349h-295l112 574h-363l-112 -574h-295z" />
<glyph unicode="I" d="M52 0l44 228h316l174 893h-316l44 228h916l-44 -228h-316l-174 -893h316l-44 -228h-916z" />
<glyph unicode="J" d="M74 370q0 8 0.5 16t0.5 16l299 43v-19q0 -104 31 -157q34 -58 97 -58q73 0 127.5 59t75.5 169l132 679h-301l45 231h595l-175 -903q-21 -107 -68.5 -193.5t-118 -147t-161 -93t-198.5 -32.5q-190 0 -285.5 101.5t-95.5 288.5z" />
<glyph unicode="K" d="M31 0l262 1349h295l-116 -599l552 599h343l-572 -579l329 -770h-348l-215 557l-154 -142l-81 -415h-295z" />
<glyph unicode="L" d="M106 0l262 1349h295l-218 -1121h616l-44 -228h-911z" />
<glyph unicode="M" d="M-6 0l262 1349h347l38 -499q2 -33 2 -47q0 -43 -9 -184q16 47 45 125.5t40 104.5l233 500h335l-262 -1349h-222l169 868q10 51 35 151.5t39 149.5q-108 -272 -141 -341l-215 -468h-218l-35 468q-4 61 -8 201l-2 140q-28 -220 -44 -301l-169 -868h-220z" />
<glyph unicode="N" d="M30 0l262 1349h337l192 -1037q5 67 12 133q6 57 13.5 119.5t17.5 112.5l130 672h257l-262 -1349h-346l-188 1010q-5 -72 -12 -138q-3 -28 -6.5 -58t-7 -58.5t-7 -54t-7.5 -45.5l-128 -656h-257z" />
<glyph unicode="O" d="M74 440q0 54 6 113.5t19 125.5q67 345 241 518t436 173q212 0 322.5 -113t110.5 -340q0 -54 -6 -113t-19 -125q-67 -345 -241.5 -522t-436.5 -177q-213 0 -322.5 115.5t-109.5 344.5zM374 466q0 -126 44.5 -190t132.5 -64q121 0 205 118.5t129 348.5q24 123 24 213 q0 246 -178 246q-121 0 -204.5 -114.5t-128.5 -344.5q-24 -121 -24 -213z" />
<glyph unicode="P" d="M31 0l262 1349h480q117 0 202.5 -22t141.5 -63.5t83 -101.5t27 -136q0 -24 -3 -50t-8 -53q-18 -91 -64 -172.5t-120.5 -142.5t-178.5 -96.5t-237 -35.5h-197l-93 -476h-295zM463 703h160q132 0 203.5 54.5t91.5 160.5q6 30 6 55q0 79 -57.5 113t-170.5 34h-152z" />
<glyph unicode="Q" d="M74 439q0 54 6 114t19 126q67 345 241 518t436 173q212 0 322.5 -113t110.5 -340q0 -54 -6 -113t-19 -125q-56 -288 -185.5 -458t-324.5 -221q9 -55 29.5 -91t49.5 -57t67.5 -29.5t83.5 -8.5q29 0 61.5 4t63.5 9l-39 -202q-57 -12 -117 -20t-130 -8q-95 0 -160.5 29 t-108.5 81.5t-65.5 125.5t-32.5 160q-150 32 -226 144t-76 302zM374 466q0 -126 44.5 -190t132.5 -64q121 0 205 118.5t129 348.5q24 123 24 213q0 246 -178 246q-121 0 -204.5 -114.5t-128.5 -344.5q-24 -121 -24 -213z" />
<glyph unicode="R" d="M32 0l262 1349h494q230 0 344 -78.5t114 -227.5q0 -22 -2.5 -45.5t-7.5 -48.5q-14 -74 -46.5 -134t-78.5 -105.5t-103.5 -78t-121.5 -50.5l236 -581h-332l-190 515h-173l-100 -515h-295zM472 744h176q132 0 201.5 49.5t87.5 143.5q2 13 3.5 24t1.5 22q0 76 -59.5 106.5 t-169.5 30.5h-168z" />
<glyph unicode="S" d="M4 367l293 37q5 -94 67 -148.5t189 -54.5q60 0 109.5 9t87 29t62.5 53.5t34 81.5q3 15 3 29q0 45 -28 74t-71 49t-95.5 33.5t-100.5 26.5q-61 17 -126.5 40.5t-119.5 60.5t-89 91.5t-35 135.5q0 34 8 77q19 98 75 169.5t136 118t176.5 69t196.5 22.5q224 0 333 -88.5 t110 -274.5l-292 -29q-4 91 -52 137t-145 46q-63 0 -107.5 -12.5t-73.5 -34t-45 -49t-22 -57.5q-3 -15 -3 -29q0 -39 22 -65t58 -44.5t81.5 -31.5t93.5 -26q45 -12 93 -26.5t93.5 -33.5t86 -44.5t71 -59.5t48.5 -78t18 -101q0 -18 -2 -37.5t-6 -40.5q-17 -88 -66 -163.5 t-128.5 -130.5t-189.5 -86t-250 -31q-117 0 -208.5 25t-155 74t-97.5 121.5t-37 166.5z" />
<glyph unicode="T" d="M174 1121l44 228h1107l-44 -228h-406l-218 -1121h-295l218 1121h-406z" />
<glyph unicode="U" d="M105 330q0 88 22 198l159 821h295l-159 -818q-10 -50 -14.5 -90.5t-4.5 -73.5q0 -85 34 -120.5t106 -35.5q50 0 90.5 17.5t73 56.5t56.5 102t42 154l157 808h295l-156 -806q-31 -156 -87 -263.5t-134 -174t-176.5 -96t-213.5 -29.5q-90 0 -161 18t-121 59t-76.5 108 t-26.5 165z" />
<glyph unicode="V" d="M160 1349h308l83 -775q5 -45 9 -92t7 -86q4 -46 6 -88q18 41 38 86q17 38 39.5 85.5t46.5 94.5l382 775h305l-723 -1349h-299z" />
<glyph unicode="W" d="M106 0l51 1349h259l-46 -695q-2 -39 -8.5 -85t-12.5 -87q-7 -48 -15 -94q13 36 30 76q14 35 33 78.5t40 89.5l165 339h195l33 -339q5 -57 6 -110t0 -88v-46q1 0 8 27t16.5 67t22 86.5t24.5 85.5l219 695h259l-472 -1349h-248l-12 267q-1 19 -3 45t-3.5 55.5t-3 61 t-2.5 61.5q-3 70 -6 146q-33 -77 -64 -147q-13 -30 -27 -61.5t-27 -61t-24.5 -55t-20.5 -44.5l-118 -267h-248z" />
<glyph unicode="X" d="M-105 0l597 711l-294 638h312l180 -430l345 430h310l-552 -638l331 -711h-310l-207 493l-400 -493h-312z" />
<glyph unicode="Y" d="M160 1349h309l190 -566l414 566h309l-618 -793l-108 -556h-294l108 556z" />
<glyph unicode="Z" d="M-18 0l41 209l847 909h-595l45 231h934l-40 -205l-848 -913h712l-45 -231h-1051z" />
<glyph unicode="[" d="M185 -425l371 1909h602l-36 -190h-336l-297 -1528h336l-38 -191h-602z" />
<glyph unicode="\" d="M274 1484h228l529 -1504h-232z" />
<glyph unicode="]" d="M66 -425l38 191h336l297 1528h-336l36 190h602l-371 -1909h-602z" />
<glyph unicode="^" d="M40 514l565 895h322l219 -895h-229l-180 752l-470 -752h-227z" />
<glyph unicode="_" d="M-153 -220l19 96h1238l-19 -96h-1238z" />
<glyph unicode="`" d="M517 1415l8 43h258l205 -243l-6 -31h-170z" />
<glyph unicode="a" d="M51 222q0 39 9 84q19 96 63.5 161.5t108.5 106t144 59t169 19.5l224 4l10 55q5 24 7.5 45t2.5 39q0 69 -31.5 97t-85.5 28q-31 0 -58 -7t-49.5 -24.5t-40.5 -47t-32 -74.5l-290 14q25 71 67 129.5t105 101.5t148.5 66.5t196.5 23.5q173 0 262.5 -72.5t89.5 -213.5 q0 -46 -11 -104l-76 -392q-5 -25 -8 -46.5t-3 -38.5q0 -37 15.5 -56t53.5 -19q32 0 63 6l-29 -152q-26 -6 -47 -11t-41.5 -8t-43.5 -5t-53 -2q-95 0 -137 41.5t-42 122.5q0 10 0.5 20t1.5 21h-6q-38 -50 -78.5 -89.5t-86.5 -67t-98.5 -42t-114.5 -14.5q-134 0 -206.5 62 t-72.5 180zM352 274q0 -98 96 -98q54 0 100.5 23t83 60.5t61.5 86.5t35 100l10 55l-134 -2q-45 -1 -85 -6.5t-72.5 -23t-55 -51t-33.5 -90.5q-6 -30 -6 -54z" />
<glyph unicode="b" d="M35 0q8 34 23 95.5t31 140.5l242 1248h281l-76 -394q-5 -25 -10.5 -52t-10.5 -52t-9.5 -44.5t-6.5 -29.5h2q34 53 76.5 89.5t89 59t95 32.5t93.5 10q78 0 134.5 -25.5t93 -73t54 -113.5t17.5 -147q0 -47 -5.5 -98t-16.5 -106q-24 -121 -70 -223.5t-110.5 -177.5 t-146.5 -117t-177 -42q-46 0 -88 10.5t-77.5 34t-62 60.5t-40.5 91h-4q-4 -21 -10.5 -48t-14 -53t-14 -46.5t-10.5 -28.5h-272zM410 399q0 -64 14 -108t36 -70t50 -37.5t56 -11.5q96 0 167 92t106 276q18 96 18 166q0 108 -39.5 157t-109.5 49q-36 0 -76.5 -17t-79 -58.5 t-72 -112t-54.5 -177.5q-16 -83 -16 -148z" />
<glyph unicode="c" d="M93 378q0 37 4 76t12 81q26 135 81.5 240.5t136 178t184 110.5t226.5 38q104 0 180 -27.5t125.5 -75.5t73.5 -113t24 -140v-5l-286 -14q1 10 1 19q-1 70 -35 114q-38 50 -126 49q-113 0 -183 -93t-105 -270q-18 -91 -18 -161q0 -213 166 -213q80 0 144.5 50.5t96.5 150.5 l279 -13q-24 -75 -73 -143.5t-120 -121t-163 -84t-203 -31.5q-107 0 -186.5 28t-132 80t-78 125.5t-25.5 164.5z" />
<glyph unicode="d" d="M77 349q0 45 5 92t15 98q24 123 68 226t107.5 177.5t146 116t183.5 41.5q45 0 88 -10t79 -32.5t63 -59t40 -89.5h2q2 10 5.5 29.5t7.5 44.5t9 52t10 52l77 397h281l-242 -1248q-16 -79 -25 -140.5t-13 -95.5h-272q-1 8 0.5 28.5t4.5 46.5t6.5 53t7.5 48h-4 q-37 -54 -77 -91t-84 -60.5t-92 -34t-101 -10.5q-75 0 -131 26.5t-92.5 75t-54.5 116.5t-18 151zM372 378q0 -103 37.5 -154.5t109.5 -51.5q35 0 76 18t81 61t74 115t55 180q16 83 16 147q0 63 -13.5 104.5t-36 66t-50 35t-56.5 10.5q-46 0 -87.5 -21t-77 -65.5 t-63.5 -114.5t-47 -169q-18 -91 -18 -161z" />
<glyph unicode="e" d="M84 385q0 37 4.5 77t12.5 84q30 155 95.5 261t152 171.5t187.5 94.5t203 29q104 0 179.5 -29.5t124.5 -84t73 -131.5t24 -172q0 -45 -5 -92t-15 -98l-1 -8h-734q-10 -50 -10 -99t11.5 -89.5t35.5 -69.5t60.5 -45t85.5 -16q37 0 72 8t65.5 23.5t55 40t40.5 57.5l260 -23 q-27 -46 -72.5 -98t-112 -95.5t-155.5 -72t-204 -28.5q-99 0 -179 25t-136.5 75t-87 126.5t-30.5 178.5zM421 663h460q2 15 3 29t1 28q0 102 -51 153.5t-133 51.5q-43 0 -86.5 -14.5t-81 -46t-67 -81.5t-45.5 -120z" />
<glyph unicode="f" d="M185 892l37 190h256l16 83q12 62 41.5 124t86.5 112t145 81.5t217 31.5q102 0 183 -9t139 -19l-36 -184q-62 8 -132 13.5t-142 5.5q-58 0 -97.5 -13t-65.5 -36.5t-41 -57t-23 -75.5l-11 -57h443l-37 -190h-443l-173 -892h-280l173 892h-256z" />
<glyph unicode="g" d="M36 -143l288 33q2 -65 41.5 -103t104.5 -38q42 0 82.5 14.5t75 48t61 89t42.5 136.5q6 28 12.5 58.5t11.5 56.5q6 30 12 59h-2q-69 -105 -164.5 -152t-202.5 -47q-75 0 -130 24.5t-91 69.5t-53.5 109t-17.5 144q0 85 20 191q24 125 68.5 226t108 173t146 111t182.5 39 q46 0 89 -10.5t78.5 -33.5t62 -59.5t39.5 -87.5h5q5 21 11.5 48.5t13.5 53t13.5 45.5t9.5 27h266q-8 -36 -23 -101t-31 -149l-156 -799q-23 -118 -73.5 -205.5t-125.5 -145.5t-171.5 -87t-211.5 -29q-99 0 -172.5 21.5t-121.5 60t-72 92t-25 117.5zM403 407 q0 -102 39.5 -151t112.5 -49q35 0 75.5 15t79 54.5t71.5 107t53 172.5q15 78 15 136q0 61 -14 102t-36 66t-50 35.5t-56 10.5q-46 0 -87.5 -20.5t-77 -64t-63.5 -110.5t-46 -161q-16 -79 -16 -143z" />
<glyph unicode="h" d="M38 0l288 1484h281l-78 -405q-6 -32 -13.5 -64.5t-14.5 -61t-13 -51.5t-9 -36h4q81 124 178 180t216 56q75 0 127 -19.5t84 -54.5t46 -84.5t14 -108.5q0 -35 -4 -72t-12 -77l-133 -686h-280l121 621q7 36 11 68t4 60q0 69 -30 105.5t-106 36.5q-51 0 -97 -22.5t-83.5 -64 t-65 -99t-41.5 -126.5l-113 -579h-281z" />
<glyph unicode="i" d="M13 0l37 190h395l136 702h-290l37 190h571l-173 -892h353l-37 -190h-1029zM656 1277l40 207h281l-40 -207h-281z" />
<glyph unicode="j" d="M-62 -382l41 210q42 -11 108.5 -22.5t147.5 -11.5q43 0 81.5 8.5t70 32.5t55.5 66t37 109l171 882h-354l37 190h636l-213 -1095q-21 -109 -74.5 -187t-127 -128t-161 -73.5t-176.5 -23.5q-41 0 -81.5 3.5t-77 9.5t-67.5 13.5t-53 16.5zM726 1277l40 207h281l-40 -207 h-281z" />
<glyph unicode="k" d="M68 0l288 1484h281l-165 -850l473 448h302l-462 -422l281 -660h-307l-194 490l-137 -84l-79 -406h-281z" />
<glyph unicode="l" d="M13 0l37 190h395l215 1104h-290l36 190h571l-251 -1294h353l-37 -190h-1029z" />
<glyph unicode="m" d="M-30 0l165 851q7 34 13.5 71.5t12 71t9.5 57.5t4 31h209q0 -5 -3 -25.5t-7 -47t-9 -54.5t-9 -48h2q21 39 45.5 74.5t55.5 62.5t69 42.5t84 15.5q89 0 123 -48q34 -47 33 -142v-6h2q27 47 55.5 83.5t61.5 61.5t71.5 38t85.5 13q88 0 128 -46t40 -146q0 -39 -5.5 -85.5 t-16.5 -103.5l-140 -721h-228l128 658q11 60 17 103t6 74q0 48 -14.5 68t-44.5 20q-51 0 -96 -80.5t-76 -241.5l-117 -601h-228l128 658q11 60 17 103t6 74q0 48 -14.5 68t-44.5 20q-25 0 -50 -24.5t-48 -69t-43 -107.5t-35 -140l-113 -582h-229z" />
<glyph unicode="n" d="M38 0l163 840q7 35 13.5 72t12 70.5t9 60t4.5 39.5h268q0 -12 -3 -38.5t-7 -58.5t-9 -64t-9 -54h4q80 123 177.5 179.5t215.5 56.5q141 0 206 -71.5t65 -201.5q0 -65 -15 -143l-134 -687h-280l120 619q15 74 15 127q0 75 -32 110.5t-101 35.5q-51 0 -97 -22.5t-84.5 -64 t-66 -99t-41.5 -126.5l-113 -580h-281z" />
<glyph unicode="o" d="M76 383q0 38 4 77.5t12 81.5q24 121 74 223.5t128 177.5t185.5 117t245.5 42q118 0 200 -27.5t133.5 -77.5t74.5 -121t23 -157q0 -42 -5 -85.5t-14 -91.5q-24 -124 -75 -227t-130 -177.5t-186.5 -116t-244.5 -41.5q-109 0 -189.5 28.5t-132.5 81t-77.5 127t-25.5 166.5z M369 378q0 -107 42 -156.5t124 -49.5q62 0 111 21.5t86.5 66.5t64.5 115t46 167q10 51 15 94t5 79q0 101 -41 147.5t-130 46.5q-62 0 -110.5 -21.5t-85.5 -66.5t-63.5 -114t-45.5 -165q-18 -94 -18 -164z" />
<glyph unicode="p" d="M-40 -425l247 1271q16 79 24.5 140.5t13.5 95.5h272q1 -7 -0.5 -28t-4 -47t-6.5 -53t-8 -48h4q37 54 80 91.5t88.5 61t92.5 34t93 10.5q75 0 131 -27t92.5 -76t54.5 -117.5t18 -151.5q0 -44 -4.5 -90.5t-14.5 -97.5q-24 -123 -68 -226t-108 -178t-146.5 -117t-183.5 -42 q-45 0 -88 10t-79 32.5t-62.5 59t-40.5 89.5h-2q-2 -10 -5.5 -29.5t-7.5 -44.5t-9 -52t-10 -52l-82 -418h-281zM408 390q0 -63 13.5 -105t36 -67.5t50.5 -36t56 -10.5q46 0 87.5 21t77 66t64 115.5t47.5 169.5q9 46 13 85.5t4 74.5q0 104 -37.5 156t-109.5 52q-35 0 -76 -18 t-81 -61t-74 -115.5t-55 -180.5q-16 -83 -16 -146z" />
<glyph unicode="q" d="M76 338q0 48 5.5 98.5t16.5 106.5q23 121 69 223.5t110.5 177.5t146.5 117t177 42q46 0 87.5 -10.5t76 -34t61.5 -61t43 -91.5h4q4 21 11 48t14 53t13.5 47t10.5 28h272q-8 -34 -23 -95.5t-31 -140.5l-247 -1271h-281l82 418q5 25 10.5 52t10.5 52t9 44.5t6 29.5h-2 q-34 -53 -76.5 -89.5t-89 -59t-95 -32.5t-93.5 -10q-78 0 -134.5 25.5t-92.5 72.5t-53.5 113t-17.5 147zM372 376q0 -108 39.5 -156.5t109.5 -48.5q36 0 76.5 17t79.5 58.5t72 112t54 177.5q16 83 16 148t-14 108.5t-36 69.5t-50 37.5t-56 11.5q-96 0 -166.5 -92 t-105.5 -276q-19 -95 -19 -167z" />
<glyph unicode="r" d="M145 0l136 701q14 76 19.5 152.5t5.5 136.5q0 29 -1 52.5t-2 39.5h271q2 -26 4 -58.5t2 -68.5q0 -26 -1 -52t-3 -49h4q32 57 69.5 103t86 78t109.5 49.5t139 17.5q56 0 109.5 -5t93.5 -12l-46 -237q-45 8 -95.5 13.5t-112.5 5.5q-84 0 -154.5 -34t-124.5 -92.5 t-90.5 -136.5t-53.5 -166l-85 -438h-280z" />
<glyph unicode="s" d="M68 270l255 37q3 -45 18.5 -73t43.5 -43t68.5 -20t93.5 -5q48 0 90.5 5.5t75.5 19t55 38t29 61.5q2 12 2 23q1 25 -13 43q-20 24 -59.5 40t-94.5 27.5t-118 26.5q-58 14 -114 32t-99.5 47t-70.5 72t-27 107q0 15 1.5 32t5.5 35q15 77 56.5 137.5t107.5 103t156 65 t201 22.5q88 0 161 -16.5t126 -52t83 -90.5t31 -133l-254 -26q0 39 -12.5 64.5t-36.5 40.5t-58 20.5t-76 5.5q-100 0 -155 -25.5t-67 -85.5q-7 -37 9.5 -59t51 -36.5t84 -25t107.5 -25.5q65 -14 126.5 -32.5t109.5 -49t77 -76.5t29 -115q0 -35 -7 -70q-15 -78 -59.5 -140 t-115 -105.5t-165 -67t-209.5 -23.5q-103 0 -183 15t-136 49.5t-87.5 89.5t-36.5 136z" />
<glyph unicode="t" d="M229 892l37 190h181l143 282h176l-55 -282h385l-37 -190h-385l-103 -530q-4 -22 -7.5 -43t-3.5 -40q0 -22 6.5 -40.5t23 -32t46 -21t74.5 -7.5q64 0 129 7t131 20l-36 -186q-39 -6 -76.5 -12t-77 -10.5t-83 -7t-94.5 -2.5q-100 0 -164 19.5t-101 52t-51 75.5t-14 90 q0 28 4 56t9 56l110 556h-167z" />
<glyph unicode="u" d="M92 253q0 67 15 142l133 687h281l-118 -607q-12 -63 -12 -115q0 -78 30 -124t99 -46q43 0 85.5 22.5t78.5 64t63.5 99t40.5 126.5l112 580h281l-163 -840q-7 -34 -13.5 -71.5t-11.5 -71t-9 -60t-5 -39.5h-268q1 12 4 38.5t7.5 58.5t9.5 64t9 54h-5q-80 -123 -175 -179 t-199 -56q-74 0 -125.5 20t-83.5 56t-46.5 86t-14.5 111z" />
<glyph unicode="v" d="M136 1082h297l88 -622q4 -30 7 -63.5t6 -66.5t5.5 -64t4.5 -56q11 24 25.5 54.5t30.5 63.5t33 66t33 63l338 625h294l-629 -1082h-336z" />
<glyph unicode="w" d="M89 0l27 1082h228l-35 -607q-3 -48 -8 -107.5t-17 -118.5q8 17 17 36q8 17 17.5 37.5t20.5 40.5l233 454h193l51 -455q2 -20 3 -39.5t3 -36.5q1 -19 1 -37q12 60 30 117.5t35 108.5l209 607h226l-400 -1082h-244l-51 471q-3 27 -4.5 46t-2.5 32q-1 15 -1 24q-3 -9 -9 -23 q-5 -12 -14.5 -32t-25.5 -51l-239 -467h-243z" />
<glyph unicode="x" d="M-56 0l515 559l-286 523h303l173 -354l308 354h305l-488 -520l300 -562h-305l-186 392l-340 -392h-299z" />
<glyph unicode="y" d="M-42 -412l39 200q10 -2 23 -3t26.5 -2.5t27 -2t23.5 -0.5q41 0 74.5 9t64 30t60 56t60.5 88l27 48l-240 1071h297l88 -527q2 -11 5.5 -37t7 -59.5t7.5 -70.5t7.5 -70.5t6 -59.5t2.5 -37q5 11 16.5 36.5t26.5 58t32 68.5t32.5 69t28 59.5t18.5 38.5l283 531h294 l-669 -1139q-56 -95 -109.5 -164.5t-111 -114.5t-123 -67t-145.5 -22q-44 0 -92 3t-87 10z" />
<glyph unicode="z" d="M33 0l39 199l702 680h-529l39 203h849l-39 -201l-698 -676h616l-40 -205h-939z" />
<glyph unicode="{" d="M173 431l38 195q53 2 97.5 14.5t80 39.5t60 70.5t36.5 106.5l63 328q29 147 121.5 223t231.5 76h327l-36 -190h-188q-91 0 -142 -52t-71 -157l-59 -301q-10 -51 -34.5 -93.5t-59 -74.5t-76.5 -53.5t-86 -30.5v-4q35 -9 65 -26t52 -42.5t34 -58.5t12 -73q0 -13 -1 -25.5 t-4 -26.5l-59 -301q-4 -21 -6 -40t-2 -36q0 -67 33.5 -100t106.5 -33h188l-38 -191h-327q-118 0 -181 58.5t-63 163.5q0 34 8 77l63 328q4 20 5.5 37t1.5 33q0 43 -13.5 73t-38 49t-60 27.5t-79.5 9.5z" />
<glyph unicode="|" d="M483 -455v1939h262v-1939h-262z" />
<glyph unicode="}" d="M-4 -425l38 191h188q91 0 141.5 51.5t70.5 157.5l59 301q10 51 34 92.5t58.5 74t76.5 54t87 31.5v4q-35 8 -65 25t-51.5 42.5t-34 59t-12.5 73.5q0 13 1.5 25.5t3.5 26.5l59 301q5 21 6.5 40.5t1.5 36.5q0 66 -33.5 99t-105.5 33h-188l36 190h327q118 0 182 -55t64 -162 q0 -38 -9 -82l-63 -328q-4 -20 -6 -37.5t-2 -33.5q0 -85 51.5 -121.5t140.5 -38.5l-38 -195q-52 -1 -97 -13t-80 -39t-60 -70.5t-37 -106.5l-63 -328q-13 -69 -44.5 -124.5t-77 -94t-104.5 -59.5t-128 -21h-327z" />
<glyph unicode="~" d="M96 543l41 213q58 38 130.5 61t156.5 23q41 0 80.5 -6.5t78 -17t75 -24t71.5 -26.5q42 -16 93 -29.5t99 -13.5q68 0 136.5 25t128.5 67l-42 -219q-36 -22 -69.5 -37.5t-67.5 -25t-69.5 -13.5t-76.5 -4q-75 0 -143 21t-138 47q-62 23 -114 35t-98 12q-39 0 -74 -6 t-67.5 -17.5t-64.5 -27.5t-66 -37z" />
<glyph unicode="&#xa0;" />
<glyph unicode="&#xa1;" d="M311 -270l211 923h230l-147 -923h-294zM526 809l53 270h288l-53 -270h-288z" />
<glyph unicode="&#xa2;" d="M107 517q0 33 3 68t11 72q23 117 71.5 211.5t120 163.5t164 110.5t203.5 53.5l36 184h162l-36 -184q88 -10 153 -40.5t108 -77t64 -106t21 -127.5v-6l-285 -14q1 42 -8.5 76.5t-31.5 60t-56 39.5l-2 1l-132 -678q40 14 75 42q71 54 104 154l281 -12q-24 -69 -67.5 -132.5 t-106.5 -114.5q-62 -50 -145 -85q-81 -34 -179 -45l-37 -191h-162l37 189q-93 9 -162 40.5t-114.5 81.5t-67.5 117.5t-22 148.5zM392 540q0 -114 50 -171q28 -31 69 -46l132 680q-17 -5 -32 -11q-51 -22 -92 -69t-69 -109q-29 -67 -44 -147q-7 -38 -10 -67q-4 -31 -4 -60z " />
<glyph unicode="&#xa3;" d="M-21 0l40 205q44 22 81.5 48t67.5 61.5t52.5 83.5t35.5 114l15 82h-188l34 170h178l38 198q18 92 56.5 167.5t100.5 129t148 82.5t200 29q96 0 160 -20.5t104.5 -58.5t60 -91.5t26.5 -120.5l-242 -47q-7 77 -41 112t-100 35q-91 0 -142 -57.5t-75 -182.5l-34 -175h286 l-34 -170h-286l-15 -80q-12 -59 -33 -105.5t-51.5 -83t-69.5 -64.5t-87 -52h390q104 0 167 49.5t98 143.5l226 -39q-27 -73 -70 -139t-101.5 -115.5t-131.5 -79t-160 -29.5h-704z" />
<glyph unicode="&#xa4;" d="M61 328l161 137q-11 30 -17.5 63.5t-6.5 69.5q0 43 9 86q12 60 38 116t65 105l-107 133l187 156l105 -133q54 28 113 43.5t119 15.5t112.5 -15t94.5 -44l161 135l128 -158l-162 -135q26 -61 26 -135q0 -40 -9 -84q-12 -60 -37.5 -114.5t-62.5 -102.5l108 -133l-189 -160 l-107 135q-112 -59 -232 -59q-60 0 -113.5 14.5t-95.5 42.5l-162 -137zM429 647q0 -36 12.5 -67t35.5 -54t55 -36t70 -13q43 0 84 16.5t74.5 45t57.5 66.5t32 81q4 19 4 41q0 36 -12.5 67t-35.5 53.5t-54 35t-69 12.5q-43 0 -84.5 -16.5t-75 -45t-57.5 -66.5t-33 -81 q-4 -17 -4 -39z" />
<glyph unicode="&#xa5;" d="M82 236l28 147h336l32 162h-336l28 146h276l-256 658h289l186 -536l398 536h289l-512 -658h276l-28 -146h-338l-32 -162h338l-28 -147h-338l-46 -236h-272l46 236h-336z" />
<glyph unicode="&#xa6;" d="M483 324h262v-779h-262v779zM483 676v778h262v-778h-262z" />
<glyph unicode="&#xa7;" d="M25 117l244 37q2 -45 19 -75t48 -48t73.5 -25t95.5 -7q122 0 191 32.5t85 112.5q3 17 3 30q0 36 -19.5 59.5t-58 41.5t-94.5 33t-129 33q-55 14 -111.5 33.5t-103 50t-76 74.5t-29.5 107q0 12 1 25t4 27q19 98 89 161t174 95q-30 14 -56.5 34t-45.5 46t-30 58t-11 69 q0 12 1 24.5t4 26.5q14 74 55.5 132t107.5 98.5t156 61.5t201 21q87 0 160.5 -15.5t127 -48.5t83.5 -85t31 -125l-243 -25q-1 34 -15.5 58.5t-40 40t-60.5 23t-76 7.5q-112 0 -170.5 -29.5t-70.5 -94.5q-8 -39 9.5 -65.5t53 -45.5t84 -32.5t103.5 -26.5q74 -18 138.5 -38.5 t113.5 -51.5t77 -74t28 -106q0 -27 -6 -59q-9 -44 -30 -84.5t-53 -75t-74 -61.5t-92 -42q63 -31 100.5 -77.5t37.5 -119.5q0 -27 -6 -59q-15 -78 -56.5 -141.5t-110 -108.5t-164.5 -69.5t-220 -24.5q-103 0 -183.5 15t-137.5 49t-89 89t-37 135zM415 685q-7 -39 12 -65.5 t55.5 -45t86 -32t103.5 -26.5q42 2 79 10.5t67 25.5t50 43t27 63q3 17 3 30q0 30 -15.5 52t-47 39.5t-80.5 31t-117 27.5q-95 -11 -152 -47.5t-71 -105.5z" />
<glyph unicode="&#xa8;" d="M421 1219l43 219h224l-43 -219h-224zM845 1219l43 219h227l-43 -219h-227z" />
<glyph unicode="&#xa9;" d="M31 761q0 187 46 323.5t125 225t185 131.5t227 43t227.5 -43t185.5 -131.5t124.5 -225t45.5 -323.5t-45.5 -323.5t-124.5 -225.5t-185.5 -131.5t-227.5 -42.5q-120 0 -226 42.5t-185.5 131.5t-125.5 225.5t-46 323.5zM160 761q0 -160 35 -275t96.5 -189t144 -109 t178.5 -35q97 0 180.5 35t145 109t96.5 189t35 275q0 159 -35 273.5t-96.5 189t-145 109.5t-180.5 35q-96 0 -178.5 -35t-144 -109.5t-96.5 -189t-35 -273.5zM275 763q0 98 21.5 176t64.5 133.5t108 85t152 29.5q67 0 116.5 -18t85.5 -47.5t60.5 -67t40.5 -76.5l-138 -43 q-23 60 -61.5 93.5t-101.5 33.5q-50 0 -87 -21t-61 -60t-35.5 -94.5t-11.5 -123.5q0 -69 13 -125t38.5 -96.5t62.5 -62.5t86 -22q34 0 60.5 12t47 33t36 49t27.5 60l129 -42q-15 -46 -40 -88.5t-61.5 -75.5t-85.5 -52.5t-113 -19.5q-90 0 -156.5 32t-110 89t-65 136 t-21.5 173z" />
<glyph unicode="&#xaa;" d="M261 818q0 27 6 57q14 69 49 115t85.5 74t111.5 40.5t127 13.5l170 2l9 48q2 14 3.5 25t1.5 22q0 52 -28 71t-69 19q-24 0 -46.5 -4.5t-42 -16.5t-35.5 -33t-26 -54l-217 11q18 49 51.5 91.5t82.5 74t113.5 49.5t143.5 18q65 0 117.5 -12.5t89.5 -38.5t57 -65t20 -92 q0 -29 -6 -62l-53 -273q-4 -19 -6 -34t-2 -28q0 -24 10 -36.5t35 -12.5q5 0 13 0.5t16.5 1.5t16 1.5t11.5 1.5l-24 -125q-35 -10 -72 -15.5t-68 -5.5q-81 0 -120 42t-31 112h-3q-54 -74 -126 -115.5t-161 -41.5q-97 0 -150.5 45t-53.5 130zM487 891q-9 -47 12 -72t77 -25 q40 0 75 17t62 43.5t45 59.5t24 65l6 31l-106 -3q-36 -1 -68 -5t-57.5 -16t-43.5 -34.5t-26 -60.5z" />
<glyph unicode="&#xab;" d="M125 502l13 71l330 367h236l-7 -37l-326 -366l186 -361l-7 -35h-238zM594 502l13 71l328 367h238l-7 -37l-326 -366l186 -361l-7 -35h-240z" />
<glyph unicode="&#xac;" d="M84 569v224h1027v-652h-224v428h-803z" />
<glyph unicode="&#xad;" d="M299 409l47 244h580l-47 -244h-580z" />
<glyph unicode="&#xae;" d="M31 761q0 187 46 323.5t125 225t185 131.5t227 43t227.5 -43t185.5 -131.5t124.5 -225t45.5 -323.5t-45.5 -323.5t-124.5 -225.5t-185.5 -131.5t-227.5 -42.5q-120 0 -226 42.5t-185.5 131.5t-125.5 225.5t-46 323.5zM160 761q0 -160 35 -275t96.5 -189t144 -109 t178.5 -35q97 0 180.5 35t145 109t96.5 189t35 275q0 159 -35 273.5t-96.5 189t-145 109.5t-180.5 35q-96 0 -178.5 -35t-144 -109.5t-96.5 -189t-35 -273.5zM332 343v831h307q142 0 217.5 -63t75.5 -174q0 -102 -50.5 -167t-135.5 -84l218 -343h-175l-190 329h-116v-329 h-151zM483 782h134q80 0 122 39t42 114q0 69 -47.5 98t-128.5 29h-122v-280z" />
<glyph unicode="&#xaf;" d="M172 1452l19 96h1238l-19 -96h-1238z" />
<glyph unicode="&#xb0;" d="M294 1110q0 67 25 124.5t68.5 100t102 66.5t124.5 24t124.5 -24t102 -66.5t69 -100t25.5 -124.5q0 -66 -25.5 -123.5t-69 -100t-102 -67t-124.5 -24.5t-124.5 24.5t-102 67t-68.5 100t-25 123.5zM448 1110q0 -34 13 -64.5t35.5 -53.5t52.5 -36.5t65 -13.5t64.5 13.5 t51.5 36.5t34.5 53.5t12.5 64.5q0 35 -12.5 65.5t-34.5 53t-51.5 35t-64.5 12.5t-65 -12.5t-52.5 -35t-35.5 -53t-13 -65.5z" />
<glyph unicode="&#xb1;" d="M101 0v223h1027v-223h-1027zM101 707v223h401v340h224v-340h402v-223h-402v-341h-224v341h-401z" />
<glyph unicode="&#xb2;" d="M281 563l28 142q42 63 95 110t109.5 85t112 69t101 61.5t76.5 63t39 72.5q3 17 3 32q0 35 -18.5 55t-60.5 20q-51 0 -83.5 -28.5t-49.5 -86.5l-227 6q18 54 52 101t83.5 82t113 55t140.5 20q74 0 127.5 -14.5t88.5 -40t52 -61.5t17 -80q0 -23 -5 -51 q-12 -61 -46.5 -108.5t-82 -85t-102.5 -68.5t-106 -60.5t-93.5 -60t-66.5 -67.5h425l-32 -162h-690z" />
<glyph unicode="&#xb3;" d="M313 771v12q0 6 1 12l224 15q-4 -54 23 -82t90 -28q57 0 94 28t48 85q7 36 -4.5 57.5t-33.5 32.5t-50 14.5t-54 3.5h-66l29 148h60q27 0 54.5 4.5t51 16.5t40.5 32.5t23 51.5q9 46 -13 72t-73 26q-49 0 -84.5 -26.5t-50.5 -78.5l-215 14q19 60 56.5 105t88.5 75t112.5 45 t127.5 15q71 0 124 -14t87.5 -38.5t51.5 -58t17 -72.5q0 -9 -1 -18.5t-3 -19.5q-14 -75 -67.5 -128t-150.5 -72v-2q89 -11 127.5 -54t38.5 -103q0 -23 -4 -42q-23 -116 -123.5 -182t-262.5 -66q-93 0 -153.5 18.5t-96 49t-49.5 70.5t-14 82z" />
<glyph unicode="&#xb4;" d="M492 1184l6 31l299 243h258l-8 -43l-385 -231h-170z" />
<glyph unicode="&#xb5;" d="M-57 -416l291 1498h281l-117 -605q-6 -33 -9.5 -63t-3.5 -56q0 -76 32.5 -120.5t109.5 -44.5q50 0 94.5 22.5t81 63t63.5 98t40 127.5l112 578h281l-163 -840q-6 -34 -12.5 -70.5t-12 -70t-9.5 -60.5t-5 -41h-268q1 12 3 34t5 48.5t7 53.5t8 48h-3q-57 -99 -128.5 -151.5 t-157.5 -52.5q-52 0 -90.5 24t-53.5 66h-4q-4 -32 -9 -59.5t-10 -55.5l-72 -371h-281z" />
<glyph unicode="&#xb6;" d="M193 897q0 43 9 92q17 84 55 150.5t94.5 113t130 71.5t161.5 25h629l-28 -143h-131l-297 -1530h-156l297 1530h-195l-297 -1530h-155l186 958q-69 0 -125 16.5t-95.5 49.5t-61 82t-21.5 115z" />
<glyph unicode="&#xb7;" d="M446 417l59 305h288l-59 -305h-288z" />
<glyph unicode="&#xb8;" d="M-101 -439l23 118q23 -5 44 -6t38 -1q75 0 109.5 18.5t41.5 50.5q7 35 -18 52t-91 17h-25.5t-26.5 -2l106 192h143l-60 -102q81 -5 120 -36t39 -83q0 -8 -1 -16.5t-3 -17.5q-7 -39 -29 -74t-62.5 -60.5t-101.5 -40.5t-146 -15q-46 0 -100 6z" />
<glyph unicode="&#xb9;" d="M279 563l28 142h236l103 530q-18 -26 -49 -47t-67 -36t-72.5 -23.5t-64.5 -8.5l30 154q33 0 70 9t73 26.5t68.5 42.5t55.5 58h204l-137 -705h220l-28 -142h-670z" />
<glyph unicode="&#xba;" d="M314 939q0 25 3 50.5t8 53.5q17 87 55.5 160t97 126t137 82.5t175.5 29.5q84 0 145 -21t100.5 -59t58 -91t18.5 -118q0 -26 -3 -53t-8 -56q-17 -88 -56.5 -162t-99.5 -126.5t-139.5 -82t-175.5 -29.5q-78 0 -137 21t-98.5 59.5t-60 93.5t-20.5 122zM542 943 q0 -39 8.5 -65.5t24.5 -43t37.5 -23.5t47.5 -7q38 0 70.5 11.5t59.5 39t47.5 73.5t33.5 115q12 62 12 103q0 74 -32 102.5t-91 28.5q-37 0 -69.5 -11.5t-58.5 -38.5t-46 -72t-33 -112q-6 -29 -8.5 -54t-2.5 -46z" />
<glyph unicode="&#xbb;" d="M54 141l7 35l326 361l-182 366l7 37h238l184 -367l-13 -71l-327 -361h-240zM523 141l7 35l326 361l-182 366l7 37h236l186 -367l-13 -71l-329 -361h-238z" />
<glyph unicode="&#xbc;" d="M39 0l1000 1349h161l-999 -1349h-162zM104 1068l32 165q18 0 47.5 6t63 19.5t66.5 35.5t56 55h181l-148 -760h-191l111 570q-18 -26 -49 -43.5t-64.5 -28t-62.5 -15t-42 -4.5zM501 162l29 149l409 452h211l-87 -450h82l-30 -151h-82l-31 -160h-191l31 160h-341zM695 313 h177l38 198q11 54 25 95q-9 -13 -26.5 -36.5t-37 -48.5t-37 -47.5t-28.5 -34.5z" />
<glyph unicode="&#xbd;" d="M24 0l1000 1349h161l-999 -1349h-162zM105 1068l32 165q18 0 47.5 6t63 19.5t66.5 35.5t56 55h181l-148 -760h-191l111 570q-18 -26 -49 -43.5t-64.5 -28t-62.5 -15t-42 -4.5zM553 1l28 143q40 62 86 105.5t93 75t91.5 56t81 49t61.5 53t33 69.5q3 19 2.5 35.5t-7.5 29 t-20.5 19.5t-36.5 7q-30 0 -50 -10t-34 -26.5t-23 -37.5t-16 -44l-178 10q15 45 39 87.5t63 76t94.5 54t132.5 20.5q114 0 169.5 -43.5t55.5 -121.5q0 -12 -1.5 -24t-3.5 -26q-12 -61 -44 -106t-74 -79.5t-90 -61.5t-93 -51.5t-81.5 -49.5t-55.5 -56h350l-30 -153h-542z" />
<glyph unicode="&#xbe;" d="M62 798v3l210 26q-1 -6 -1 -12v-11q0 -48 16 -73t54 -25q41 0 66 25t36 79q3 14 3 26q0 23 -9 37t-25 22t-38 11t-48 3h-41l25 131h37q68 0 99.5 24t42.5 80q2 10 3 18.5t1 16.5q0 52 -52 52q-44 0 -66.5 -28t-37.5 -82l-192 12q38 114 117.5 171t209.5 57q58 0 100 -12 t69 -33.5t40 -51t13 -64.5q0 -22 -4 -42q-13 -66 -54 -107t-116 -67l-1 -6q66 -15 96 -52.5t30 -89.5q0 -11 -1.5 -21.5t-3.5 -21.5q-10 -54 -39 -96t-71.5 -70.5t-98 -43t-120.5 -14.5q-126 0 -187.5 53t-61.5 176zM115 0l1000 1349h161l-999 -1349h-162zM540 162l29 149 l409 452h211l-87 -450h82l-30 -151h-82l-31 -160h-191l31 160h-341zM734 313h177l38 198q11 54 25 95q-9 -13 -26.5 -36.5t-37 -48.5t-37 -47.5t-28.5 -34.5z" />
<glyph unicode="&#xbf;" d="M30 22q0 34 8 74q12 60 38.5 107t63 85.5t79.5 70t87.5 60t87.5 55.5t78.5 57.5t61.5 65.5t36 79h267q-21 -85 -64.5 -146t-97.5 -106.5t-111.5 -80.5t-107.5 -69.5t-86.5 -73.5t-46.5 -92q-3 -16 -3 -31q0 -60 48.5 -99.5t142.5 -39.5q51 0 97 15.5t84.5 43.5t67 68 t43.5 88l282 -12q-28 -88 -81 -166.5t-129.5 -136.5t-177.5 -92t-226 -34q-106 0 -188 22t-138.5 62.5t-85.5 98t-29 127.5zM583 812l52 270h289l-52 -270h-289z" />
<glyph unicode="&#xc0;" d="M-105 0l705 1349h344l180 -1349h-294l-28 330h-456l-156 -330h-295zM451 552h332l-34 380q-3 36 -5 73.5t-3.5 69.5t-2.5 57t-1 35q-4 -10 -14.5 -35t-24.5 -57t-31 -69.5t-34 -73.5zM471 1658l8 43h258l205 -243l-6 -31h-170z" />
<glyph unicode="&#xc1;" d="M-105 0l705 1349h344l180 -1349h-294l-28 330h-456l-156 -330h-295zM451 552h332l-34 380q-3 36 -5 73.5t-3.5 69.5t-2.5 57t-1 35q-4 -10 -14.5 -35t-24.5 -57t-31 -69.5t-34 -73.5zM632 1428l6 31l299 243h258l-8 -43l-385 -231h-170z" />
<glyph unicode="&#xc2;" d="M-105 0l705 1349h344l180 -1349h-294l-28 330h-456l-156 -330h-295zM418 1427l5 28l307 250h229l201 -250l-5 -28h-159l-177 134h-4l-237 -134h-160zM451 552h332l-34 380q-3 36 -5 73.5t-3.5 69.5t-2.5 57t-1 35q-4 -10 -14.5 -35t-24.5 -57t-31 -69.5t-34 -73.5z" />
<glyph unicode="&#xc3;" d="M-105 0l705 1349h344l180 -1349h-294l-28 330h-456l-156 -330h-295zM395 1422q7 27 17 58.5t25 63t35.5 60.5t49.5 51.5t66.5 36t86.5 13.5q45 0 87 -17.5t79.5 -39t70.5 -39t62 -17.5q50 0 75.5 28t45.5 85h135q-10 -41 -27.5 -90.5t-49 -92t-80 -71.5t-121.5 -29 q-44 0 -85 17.5t-79 39t-72 39t-64 17.5q-26 0 -44.5 -7t-32 -21t-24 -35t-19.5 -50h-137zM451 552h332l-34 380q-3 36 -5 73.5t-3.5 69.5t-2.5 57t-1 35q-4 -10 -14.5 -35t-24.5 -57t-31 -69.5t-34 -73.5z" />
<glyph unicode="&#xc4;" d="M-105 0l705 1349h344l180 -1349h-294l-28 330h-456l-156 -330h-295zM451 552h332l-34 380q-3 36 -5 73.5t-3.5 69.5t-2.5 57t-1 35q-4 -10 -14.5 -35t-24.5 -57t-31 -69.5t-34 -73.5zM465 1445l43 219h224l-43 -219h-224zM889 1445l43 219h227l-43 -219h-227z" />
<glyph unicode="&#xc5;" d="M-105 0l705 1349h344l180 -1349h-294l-28 330h-456l-156 -330h-295zM451 552h332l-34 380q-3 36 -5 73.5t-3.5 69.5t-2.5 57t-1 35q-4 -10 -14.5 -35t-24.5 -57t-31 -69.5t-34 -73.5zM553 1441q0 9 1 18.5t3 19.5q8 39 29.5 75t57 63.5t84.5 44t110 16.5q54 0 93 -13 t64.5 -34.5t37.5 -51t12 -62.5q0 -9 -1 -18.5t-3 -19.5q-7 -39 -29 -75t-57.5 -64t-84.5 -44.5t-110 -16.5q-54 0 -93 13t-64.5 35t-37.5 51.5t-12 62.5zM695 1479q-3 -13 0.5 -25.5t14 -22.5t29 -16.5t46.5 -6.5t49 6.5t35 16.5t22 22.5t11 25.5q2 12 -1 25t-13 23 t-28.5 16.5t-46.5 6.5q-56 0 -84.5 -23t-33.5 -48z" />
<glyph unicode="&#xc6;" d="M-105 0l634 1349h804l-39 -202h-309l-69 -355h297l-39 -200h-297l-76 -390h348l-39 -202h-599l75 387h-253l-177 -387h-261zM423 586h202l110 566h-58q-7 -16 -18 -42.5t-23 -55.5t-24 -56.5t-20 -45.5z" />
<glyph unicode="&#xc7;" d="M83 449q0 108 24 232q33 167 92 295t146 216t203 133t261 45q104 0 179 -29t125.5 -80.5t78.5 -123t38 -156.5l-285 -66q-4 48 -16.5 89t-34.5 71t-53.5 46.5t-72.5 16.5q-136 0 -226.5 -115.5t-134.5 -341.5q-21 -109 -21 -195q0 -134 51.5 -204t157.5 -70q45 0 85.5 18 t76.5 50.5t67.5 77.5t58.5 98l263 -52q-51 -99 -112.5 -177.5t-136 -133t-161.5 -84t-189 -29.5q-122 0 -210 32.5t-144.5 93.5t-83 148t-26.5 195zM253 -439l23 118q23 -5 44 -6t38 -1q75 0 109.5 18.5t41.5 50.5q7 35 -18 52t-91 17h-25.5t-26.5 -2l106 192h143l-60 -102 q81 -5 120 -36t39 -83q0 -8 -1 -16.5t-3 -17.5q-7 -39 -29 -74t-62.5 -60.5t-101.5 -40.5t-146 -15q-46 0 -100 6z" />
<glyph unicode="&#xc8;" d="M32 0l262 1349h968l-44 -228h-673l-63 -324h612l-44 -228h-612l-67 -341h714l-44 -228h-1009zM493 1659l8 43h258l205 -243l-6 -31h-170z" />
<glyph unicode="&#xc9;" d="M32 0l262 1349h968l-44 -228h-673l-63 -324h612l-44 -228h-612l-67 -341h714l-44 -228h-1009zM630 1428l6 31l299 243h258l-8 -43l-385 -231h-170z" />
<glyph unicode="&#xca;" d="M32 0l262 1349h968l-44 -228h-673l-63 -324h612l-44 -228h-612l-67 -341h714l-44 -228h-1009zM418 1427l5 28l307 250h229l201 -250l-5 -28h-159l-177 134h-4l-237 -134h-160z" />
<glyph unicode="&#xcb;" d="M32 0l262 1349h968l-44 -228h-673l-63 -324h612l-44 -228h-612l-67 -341h714l-44 -228h-1009zM485 1445l43 219h224l-43 -219h-224zM909 1445l43 219h227l-43 -219h-227z" />
<glyph unicode="&#xcc;" d="M52 0l44 228h316l174 893h-316l44 228h916l-44 -228h-316l-174 -893h316l-44 -228h-916zM483 1659l8 43h258l205 -243l-6 -31h-170z" />
<glyph unicode="&#xcd;" d="M52 0l44 228h316l174 893h-316l44 228h916l-44 -228h-316l-174 -893h316l-44 -228h-916zM642 1428l6 31l299 243h258l-8 -43l-385 -231h-170z" />
<glyph unicode="&#xce;" d="M52 0l44 228h316l174 893h-316l44 228h916l-44 -228h-316l-174 -893h316l-44 -228h-916zM418 1427l5 28l307 250h229l201 -250l-5 -28h-159l-177 134h-4l-237 -134h-160z" />
<glyph unicode="&#xcf;" d="M52 0l44 228h316l174 893h-316l44 228h916l-44 -228h-316l-174 -893h316l-44 -228h-916zM465 1445l43 219h224l-43 -219h-224zM889 1445l43 219h227l-43 -219h-227z" />
<glyph unicode="&#xd0;" d="M19 564l42 219h134l110 566h361q133 0 235 -27.5t171 -84t104.5 -143t35.5 -205.5q0 -94 -22 -204q-33 -168 -97.5 -296t-157.5 -214.5t-212 -130.5t-259 -44h-421l110 564h-134zM382 228h102q162 0 263 114.5t146 342.5q18 93 18 164q0 144 -73.5 208t-220.5 64h-61 l-66 -338h207l-42 -219h-207z" />
<glyph unicode="&#xd1;" d="M30 0l262 1349h337l192 -1037q5 67 12 133q6 57 13.5 119.5t17.5 112.5l130 672h257l-262 -1349h-346l-188 1010q-5 -72 -12 -138q-3 -28 -6.5 -58t-7 -58.5t-7 -54t-7.5 -45.5l-128 -656h-257zM395 1422q7 27 17 58.5t25 63t35.5 60.5t49.5 51.5t66.5 36t86.5 13.5 q45 0 87 -17.5t79.5 -39t70.5 -39t62 -17.5q50 0 75.5 28t45.5 85h135q-10 -41 -27.5 -90.5t-49 -92t-80 -71.5t-121.5 -29q-44 0 -85 17.5t-79 39t-72 39t-64 17.5q-26 0 -44.5 -7t-32 -21t-24 -35t-19.5 -50h-137z" />
<glyph unicode="&#xd2;" d="M74 440q0 54 6 113.5t19 125.5q67 345 241 518t436 173q212 0 322.5 -113t110.5 -340q0 -54 -6 -113t-19 -125q-67 -345 -241.5 -522t-436.5 -177q-213 0 -322.5 115.5t-109.5 344.5zM374 466q0 -126 44.5 -190t132.5 -64q121 0 205 118.5t129 348.5q24 123 24 213 q0 246 -178 246q-121 0 -204.5 -114.5t-128.5 -344.5q-24 -121 -24 -213zM478 1659l8 43h258l205 -243l-6 -31h-170z" />
<glyph unicode="&#xd3;" d="M74 440q0 54 6 113.5t19 125.5q67 345 241 518t436 173q212 0 322.5 -113t110.5 -340q0 -54 -6 -113t-19 -125q-67 -345 -241.5 -522t-436.5 -177q-213 0 -322.5 115.5t-109.5 344.5zM374 466q0 -126 44.5 -190t132.5 -64q121 0 205 118.5t129 348.5q24 123 24 213 q0 246 -178 246q-121 0 -204.5 -114.5t-128.5 -344.5q-24 -121 -24 -213zM637 1428l6 31l299 243h258l-8 -43l-385 -231h-170z" />
<glyph unicode="&#xd4;" d="M74 440q0 54 6 113.5t19 125.5q67 345 241 518t436 173q212 0 322.5 -113t110.5 -340q0 -54 -6 -113t-19 -125q-67 -345 -241.5 -522t-436.5 -177q-213 0 -322.5 115.5t-109.5 344.5zM374 466q0 -126 44.5 -190t132.5 -64q121 0 205 118.5t129 348.5q24 123 24 213 q0 246 -178 246q-121 0 -204.5 -114.5t-128.5 -344.5q-24 -121 -24 -213zM418 1427l5 28l307 250h229l201 -250l-5 -28h-159l-177 134h-4l-237 -134h-160z" />
<glyph unicode="&#xd5;" d="M74 440q0 54 6 113.5t19 125.5q67 345 241 518t436 173q212 0 322.5 -113t110.5 -340q0 -54 -6 -113t-19 -125q-67 -345 -241.5 -522t-436.5 -177q-213 0 -322.5 115.5t-109.5 344.5zM374 466q0 -126 44.5 -190t132.5 -64q121 0 205 118.5t129 348.5q24 123 24 213 q0 246 -178 246q-121 0 -204.5 -114.5t-128.5 -344.5q-24 -121 -24 -213zM395 1422q7 27 17 58.5t25 63t35.5 60.5t49.5 51.5t66.5 36t86.5 13.5q45 0 87 -17.5t79.5 -39t70.5 -39t62 -17.5q50 0 75.5 28t45.5 85h135q-10 -41 -27.5 -90.5t-49 -92t-80 -71.5t-121.5 -29 q-44 0 -85 17.5t-79 39t-72 39t-64 17.5q-26 0 -44.5 -7t-32 -21t-24 -35t-19.5 -50h-137z" />
<glyph unicode="&#xd6;" d="M74 440q0 54 6 113.5t19 125.5q67 345 241 518t436 173q212 0 322.5 -113t110.5 -340q0 -54 -6 -113t-19 -125q-67 -345 -241.5 -522t-436.5 -177q-213 0 -322.5 115.5t-109.5 344.5zM374 466q0 -126 44.5 -190t132.5 -64q121 0 205 118.5t129 348.5q24 123 24 213 q0 246 -178 246q-121 0 -204.5 -114.5t-128.5 -344.5q-24 -121 -24 -213zM468 1445l43 219h224l-43 -219h-224zM892 1445l43 219h227l-43 -219h-227z" />
<glyph unicode="&#xd7;" d="M102 326l356 358l-352 352l158 156l352 -350l352 352l158 -158l-352 -354l352 -350l-158 -160l-352 354l-356 -358z" />
<glyph unicode="&#xd8;" d="M-53 32l165 176q-39 96 -39 231q0 54 6.5 114t19.5 126q67 345 241 518t436 173q213 0 323 -115l134 142l99 -75l-164 -173q20 -49 30.5 -107t10.5 -127q0 -53 -6 -111.5t-19 -124.5q-67 -345 -241.5 -522t-436.5 -177q-215 0 -326 119l-133 -142zM374 486l513 545 q-39 107 -156 107q-121 0 -204.5 -114.5t-128.5 -344.5q-11 -55 -17 -103t-7 -90zM394 326q41 -114 157 -114q121 0 205 118.5t129 348.5q11 55 16.5 103t6.5 90z" />
<glyph unicode="&#xd9;" d="M105 330q0 88 22 198l159 821h295l-159 -818q-10 -50 -14.5 -90.5t-4.5 -73.5q0 -85 34 -120.5t106 -35.5q50 0 90.5 17.5t73 56.5t56.5 102t42 154l157 808h295l-156 -806q-31 -156 -87 -263.5t-134 -174t-176.5 -96t-213.5 -29.5q-90 0 -161 18t-121 59t-76.5 108 t-26.5 165zM467 1659l8 43h258l205 -243l-6 -31h-170z" />
<glyph unicode="&#xda;" d="M105 330q0 88 22 198l159 821h295l-159 -818q-10 -50 -14.5 -90.5t-4.5 -73.5q0 -85 34 -120.5t106 -35.5q50 0 90.5 17.5t73 56.5t56.5 102t42 154l157 808h295l-156 -806q-31 -156 -87 -263.5t-134 -174t-176.5 -96t-213.5 -29.5q-90 0 -161 18t-121 59t-76.5 108 t-26.5 165zM625 1428l6 31l299 243h258l-8 -43l-385 -231h-170z" />
<glyph unicode="&#xdb;" d="M105 330q0 88 22 198l159 821h295l-159 -818q-10 -50 -14.5 -90.5t-4.5 -73.5q0 -85 34 -120.5t106 -35.5q50 0 90.5 17.5t73 56.5t56.5 102t42 154l157 808h295l-156 -806q-31 -156 -87 -263.5t-134 -174t-176.5 -96t-213.5 -29.5q-90 0 -161 18t-121 59t-76.5 108 t-26.5 165zM418 1427l5 28l307 250h229l201 -250l-5 -28h-159l-177 134h-4l-237 -134h-160z" />
<glyph unicode="&#xdc;" d="M105 330q0 88 22 198l159 821h295l-159 -818q-10 -50 -14.5 -90.5t-4.5 -73.5q0 -85 34 -120.5t106 -35.5q50 0 90.5 17.5t73 56.5t56.5 102t42 154l157 808h295l-156 -806q-31 -156 -87 -263.5t-134 -174t-176.5 -96t-213.5 -29.5q-90 0 -161 18t-121 59t-76.5 108 t-26.5 165zM465 1445l43 219h224l-43 -219h-224zM889 1445l43 219h227l-43 -219h-227z" />
<glyph unicode="&#xdd;" d="M160 1349h309l190 -566l414 566h309l-618 -793l-108 -556h-294l108 556zM640 1428l6 31l299 243h258l-8 -43l-385 -231h-170z" />
<glyph unicode="&#xde;" d="M32 0l262 1349h295l-45 -235h203q117 0 202.5 -24t141 -67.5t82.5 -104t27 -134.5q0 -43 -9 -91q-16 -84 -62 -162.5t-121 -139.5t-179 -98t-237 -37h-215l-50 -256h-295zM417 465h178q66 0 117.5 18.5t88.5 49t60 71t32 85.5q2 12 3.5 23.5t1.5 22.5q0 76 -55.5 123 t-169.5 47h-170z" />
<glyph unicode="&#xdf;" d="M23 0l196 1007q21 111 68.5 199.5t120.5 150t172.5 94.5t225.5 33q101 0 173.5 -21t120 -57.5t70 -86t22.5 -106.5q0 -16 -2 -31.5t-5 -32.5q-10 -54 -35 -96.5t-56.5 -76.5t-66 -61t-64 -49.5t-50 -43t-24.5 -40.5q-5 -26 11.5 -48.5t44.5 -47t62.5 -53t64 -64.5 t49.5 -82t20 -106q0 -34 -7 -69q-14 -73 -48.5 -134t-90 -105t-133.5 -68.5t-180 -24.5q-71 0 -134 10t-120 33l41 206q22 -11 50 -21.5t57 -19t58.5 -13.5t54.5 -5q81 0 125 34.5t55 91.5q8 43 -7.5 75t-43.5 60t-63.5 54t-66 57.5t-51.5 70.5t-21 93q0 13 1 26.5t4 27.5 q9 46 32 80.5t53.5 63.5t64 54t63.5 51.5t52.5 57.5t30.5 71q3 15 3 30q0 52 -39 82.5t-117 30.5q-103 0 -169.5 -63.5t-93.5 -204.5l-197 -1013h-281z" />
<glyph unicode="&#xe0;" d="M51 222q0 39 9 84q19 96 63.5 161.5t108.5 106t144 59t169 19.5l224 4l10 55q5 24 7.5 45t2.5 39q0 69 -31.5 97t-85.5 28q-31 0 -58 -7t-49.5 -24.5t-40.5 -47t-32 -74.5l-290 14q25 71 67 129.5t105 101.5t148.5 66.5t196.5 23.5q173 0 262.5 -72.5t89.5 -213.5 q0 -46 -11 -104l-76 -392q-5 -25 -8 -46.5t-3 -38.5q0 -37 15.5 -56t53.5 -19q32 0 63 6l-29 -152q-26 -6 -47 -11t-41.5 -8t-43.5 -5t-53 -2q-95 0 -137 41.5t-42 122.5q0 10 0.5 20t1.5 21h-6q-38 -50 -78.5 -89.5t-86.5 -67t-98.5 -42t-114.5 -14.5q-134 0 -206.5 62 t-72.5 180zM352 274q0 -98 96 -98q54 0 100.5 23t83 60.5t61.5 86.5t35 100l10 55l-134 -2q-45 -1 -85 -6.5t-72.5 -23t-55 -51t-33.5 -90.5q-6 -30 -6 -54zM403 1415l8 43h258l205 -243l-6 -31h-170z" />
<glyph unicode="&#xe1;" d="M51 222q0 39 9 84q19 96 63.5 161.5t108.5 106t144 59t169 19.5l224 4l10 55q5 24 7.5 45t2.5 39q0 69 -31.5 97t-85.5 28q-31 0 -58 -7t-49.5 -24.5t-40.5 -47t-32 -74.5l-290 14q25 71 67 129.5t105 101.5t148.5 66.5t196.5 23.5q173 0 262.5 -72.5t89.5 -213.5 q0 -46 -11 -104l-76 -392q-5 -25 -8 -46.5t-3 -38.5q0 -37 15.5 -56t53.5 -19q32 0 63 6l-29 -152q-26 -6 -47 -11t-41.5 -8t-43.5 -5t-53 -2q-95 0 -137 41.5t-42 122.5q0 10 0.5 20t1.5 21h-6q-38 -50 -78.5 -89.5t-86.5 -67t-98.5 -42t-114.5 -14.5q-134 0 -206.5 62 t-72.5 180zM352 274q0 -98 96 -98q54 0 100.5 23t83 60.5t61.5 86.5t35 100l10 55l-134 -2q-45 -1 -85 -6.5t-72.5 -23t-55 -51t-33.5 -90.5q-6 -30 -6 -54zM569 1184l6 31l299 243h258l-8 -43l-385 -231h-170z" />
<glyph unicode="&#xe2;" d="M51 222q0 39 9 84q19 96 63.5 161.5t108.5 106t144 59t169 19.5l224 4l10 55q5 24 7.5 45t2.5 39q0 69 -31.5 97t-85.5 28q-31 0 -58 -7t-49.5 -24.5t-40.5 -47t-32 -74.5l-290 14q25 71 67 129.5t105 101.5t148.5 66.5t196.5 23.5q173 0 262.5 -72.5t89.5 -213.5 q0 -46 -11 -104l-76 -392q-5 -25 -8 -46.5t-3 -38.5q0 -37 15.5 -56t53.5 -19q32 0 63 6l-29 -152q-26 -6 -47 -11t-41.5 -8t-43.5 -5t-53 -2q-95 0 -137 41.5t-42 122.5q0 10 0.5 20t1.5 21h-6q-38 -50 -78.5 -89.5t-86.5 -67t-98.5 -42t-114.5 -14.5q-134 0 -206.5 62 t-72.5 180zM352 274q0 -98 96 -98q54 0 100.5 23t83 60.5t61.5 86.5t35 100l10 55l-134 -2q-45 -1 -85 -6.5t-72.5 -23t-55 -51t-33.5 -90.5q-6 -30 -6 -54zM353 1183l5 28l307 250h229l201 -250l-5 -28h-159l-177 134h-4l-237 -134h-160z" />
<glyph unicode="&#xe3;" d="M51 222q0 39 9 84q19 96 63.5 161.5t108.5 106t144 59t169 19.5l224 4l10 55q5 24 7.5 45t2.5 39q0 69 -31.5 97t-85.5 28q-31 0 -58 -7t-49.5 -24.5t-40.5 -47t-32 -74.5l-290 14q25 71 67 129.5t105 101.5t148.5 66.5t196.5 23.5q173 0 262.5 -72.5t89.5 -213.5 q0 -46 -11 -104l-76 -392q-5 -25 -8 -46.5t-3 -38.5q0 -37 15.5 -56t53.5 -19q32 0 63 6l-29 -152q-26 -6 -47 -11t-41.5 -8t-43.5 -5t-53 -2q-95 0 -137 41.5t-42 122.5q0 10 0.5 20t1.5 21h-6q-38 -50 -78.5 -89.5t-86.5 -67t-98.5 -42t-114.5 -14.5q-134 0 -206.5 62 t-72.5 180zM341 1183q7 27 17 58.5t25 63t35.5 60.5t49.5 51.5t66.5 36t86.5 13.5q45 0 87 -17.5t79.5 -39t70.5 -39t62 -17.5q50 0 75.5 28t45.5 85h135q-10 -41 -27.5 -90.5t-49 -92t-80 -71.5t-121.5 -29q-44 0 -85 17.5t-79 39t-72 39t-64 17.5q-26 0 -44.5 -7t-32 -21 t-24 -35t-19.5 -50h-137zM352 274q0 -98 96 -98q54 0 100.5 23t83 60.5t61.5 86.5t35 100l10 55l-134 -2q-45 -1 -85 -6.5t-72.5 -23t-55 -51t-33.5 -90.5q-6 -30 -6 -54z" />
<glyph unicode="&#xe4;" d="M51 222q0 39 9 84q19 96 63.5 161.5t108.5 106t144 59t169 19.5l224 4l10 55q5 24 7.5 45t2.5 39q0 69 -31.5 97t-85.5 28q-31 0 -58 -7t-49.5 -24.5t-40.5 -47t-32 -74.5l-290 14q25 71 67 129.5t105 101.5t148.5 66.5t196.5 23.5q173 0 262.5 -72.5t89.5 -213.5 q0 -46 -11 -104l-76 -392q-5 -25 -8 -46.5t-3 -38.5q0 -37 15.5 -56t53.5 -19q32 0 63 6l-29 -152q-26 -6 -47 -11t-41.5 -8t-43.5 -5t-53 -2q-95 0 -137 41.5t-42 122.5q0 10 0.5 20t1.5 21h-6q-38 -50 -78.5 -89.5t-86.5 -67t-98.5 -42t-114.5 -14.5q-134 0 -206.5 62 t-72.5 180zM352 274q0 -98 96 -98q54 0 100.5 23t83 60.5t61.5 86.5t35 100l10 55l-134 -2q-45 -1 -85 -6.5t-72.5 -23t-55 -51t-33.5 -90.5q-6 -30 -6 -54zM405 1219l43 219h224l-43 -219h-224zM829 1219l43 219h227l-43 -219h-227z" />
<glyph unicode="&#xe5;" d="M51 222q0 39 9 84q19 96 63.5 161.5t108.5 106t144 59t169 19.5l224 4l10 55q5 24 7.5 45t2.5 39q0 69 -31.5 97t-85.5 28q-31 0 -58 -7t-49.5 -24.5t-40.5 -47t-32 -74.5l-290 14q25 71 67 129.5t105 101.5t148.5 66.5t196.5 23.5q173 0 262.5 -72.5t89.5 -213.5 q0 -46 -11 -104l-76 -392q-5 -25 -8 -46.5t-3 -38.5q0 -37 15.5 -56t53.5 -19q32 0 63 6l-29 -152q-26 -6 -47 -11t-41.5 -8t-43.5 -5t-53 -2q-95 0 -137 41.5t-42 122.5q0 10 0.5 20t1.5 21h-6q-38 -50 -78.5 -89.5t-86.5 -67t-98.5 -42t-114.5 -14.5q-134 0 -206.5 62 t-72.5 180zM352 274q0 -98 96 -98q54 0 100.5 23t83 60.5t61.5 86.5t35 100l10 55l-134 -2q-45 -1 -85 -6.5t-72.5 -23t-55 -51t-33.5 -90.5q-6 -30 -6 -54zM517 1310q0 9 1 18.5t3 19.5q8 39 29.5 75t57 63.5t84.5 44t110 16.5q54 0 93 -13t64.5 -34.5t37.5 -51t12 -62.5 q0 -9 -1 -18.5t-3 -19.5q-7 -39 -29 -75t-57.5 -64t-84.5 -44.5t-110 -16.5q-54 0 -93 13t-64.5 35t-37.5 51.5t-12 62.5zM659 1348q-3 -13 0.5 -25.5t14 -22.5t29 -16.5t46.5 -6.5t49 6.5t35 16.5t22 22.5t11 25.5q2 12 -1 25t-13 23t-28.5 16.5t-46.5 6.5q-56 0 -84.5 -23 t-33.5 -48z" />
<glyph unicode="&#xe6;" d="M-36 202q0 23 2.5 48t7.5 52q21 107 62.5 176t95.5 109t116.5 56t124.5 17l148 4l11 55q9 44 9 80q0 56 -21 88.5t-65 32.5q-49 0 -82 -37t-55 -110l-204 17q20 64 51 120.5t76.5 99t106.5 67.5t141 25q91 0 145 -35t75 -104q59 74 128 106.5t145 32.5q69 0 117 -23 t78 -65.5t43.5 -101.5t13.5 -131q0 -57 -7.5 -121t-21.5 -133l-8 -43h-509v-2q-15 -73 -15 -137q0 -41 7 -75t21 -58.5t36.5 -38t52.5 -13.5q60 0 99.5 38t68.5 103l169 -45q-21 -45 -52 -93.5t-75.5 -89t-104 -67t-136.5 -26.5q-54 0 -95.5 12t-71 39.5t-47 72t-23.5 108.5 q-30 -49 -67 -91.5t-81.5 -73.5t-95.5 -49t-109 -18q-101 0 -153 58t-52 164zM176 244q0 -35 13 -58.5t45 -23.5q45 0 85.5 27t73 69t54.5 92t31 95l11 54l-103 -3q-37 -1 -69 -9t-58 -29.5t-45.5 -59.5t-31.5 -99q-6 -28 -6 -55zM724 660h301q4 31 6 58t2 51 q0 75 -22.5 115t-76.5 40q-21 0 -50 -13t-59 -43.5t-57 -81t-44 -126.5z" />
<glyph unicode="&#xe7;" d="M93 378q0 37 4 76t12 81q26 135 81.5 240.5t136 178t184 110.5t226.5 38q104 0 180 -27.5t125.5 -75.5t73.5 -113t24 -140v-5l-286 -14q5 83 -33.5 132.5t-126.5 49.5q-113 0 -183 -93t-105 -270q-18 -91 -18 -161q0 -213 166 -213q80 0 144.5 50.5t96.5 150.5l279 -13 q-24 -75 -73 -143.5t-120 -121t-163 -84t-203 -31.5q-107 0 -186.5 28t-132 80t-78 125.5t-25.5 164.5zM236 -439l23 118q23 -5 44 -6t38 -1q75 0 109.5 18.5t41.5 50.5q7 35 -18 52t-91 17h-25.5t-26.5 -2l106 192h143l-60 -102q81 -5 120 -36t39 -83q0 -8 -1 -16.5 t-3 -17.5q-7 -39 -29 -74t-62.5 -60.5t-101.5 -40.5t-146 -15q-46 0 -100 6z" />
<glyph unicode="&#xe8;" d="M84 385q0 37 4.5 77t12.5 84q30 155 95.5 261t152 171.5t187.5 94.5t203 29q104 0 179.5 -29.5t124.5 -84t73 -131.5t24 -172q0 -45 -5 -92t-15 -98l-1 -8h-734q-10 -50 -10 -99t11.5 -89.5t35.5 -69.5t60.5 -45t85.5 -16q37 0 72 8t65.5 23.5t55 40t40.5 57.5l260 -23 q-27 -46 -72.5 -98t-112 -95.5t-155.5 -72t-204 -28.5q-99 0 -179 25t-136.5 75t-87 126.5t-30.5 178.5zM421 663h460q2 15 3 29t1 28q0 102 -51 153.5t-133 51.5q-43 0 -86.5 -14.5t-81 -46t-67 -81.5t-45.5 -120zM438 1415l8 43h258l205 -243l-6 -31h-170z" />
<glyph unicode="&#xe9;" d="M84 385q0 37 4.5 77t12.5 84q30 155 95.5 261t152 171.5t187.5 94.5t203 29q104 0 179.5 -29.5t124.5 -84t73 -131.5t24 -172q0 -45 -5 -92t-15 -98l-1 -8h-734q-10 -50 -10 -99t11.5 -89.5t35.5 -69.5t60.5 -45t85.5 -16q37 0 72 8t65.5 23.5t55 40t40.5 57.5l260 -23 q-27 -46 -72.5 -98t-112 -95.5t-155.5 -72t-204 -28.5q-99 0 -179 25t-136.5 75t-87 126.5t-30.5 178.5zM421 663h460q2 15 3 29t1 28q0 102 -51 153.5t-133 51.5q-43 0 -86.5 -14.5t-81 -46t-67 -81.5t-45.5 -120zM603 1184l6 31l299 243h258l-8 -43l-385 -231h-170z" />
<glyph unicode="&#xea;" d="M84 385q0 37 4.5 77t12.5 84q30 155 95.5 261t152 171.5t187.5 94.5t203 29q104 0 179.5 -29.5t124.5 -84t73 -131.5t24 -172q0 -45 -5 -92t-15 -98l-1 -8h-734q-10 -50 -10 -99t11.5 -89.5t35.5 -69.5t60.5 -45t85.5 -16q37 0 72 8t65.5 23.5t55 40t40.5 57.5l260 -23 q-27 -46 -72.5 -98t-112 -95.5t-155.5 -72t-204 -28.5q-99 0 -179 25t-136.5 75t-87 126.5t-30.5 178.5zM378 1183l5 28l307 250h229l201 -250l-5 -28h-159l-177 134h-4l-237 -134h-160zM421 663h460q2 15 3 29t1 28q0 102 -51 153.5t-133 51.5q-43 0 -86.5 -14.5t-81 -46 t-67 -81.5t-45.5 -120z" />
<glyph unicode="&#xeb;" d="M84 385q0 37 4.5 77t12.5 84q30 155 95.5 261t152 171.5t187.5 94.5t203 29q104 0 179.5 -29.5t124.5 -84t73 -131.5t24 -172q0 -45 -5 -92t-15 -98l-1 -8h-734q-10 -50 -10 -99t11.5 -89.5t35.5 -69.5t60.5 -45t85.5 -16q37 0 72 8t65.5 23.5t55 40t40.5 57.5l260 -23 q-27 -46 -72.5 -98t-112 -95.5t-155.5 -72t-204 -28.5q-99 0 -179 25t-136.5 75t-87 126.5t-30.5 178.5zM421 663h460q2 15 3 29t1 28q0 102 -51 153.5t-133 51.5q-43 0 -86.5 -14.5t-81 -46t-67 -81.5t-45.5 -120zM429 1219l43 219h224l-43 -219h-224zM853 1219l43 219h227 l-43 -219h-227z" />
<glyph unicode="&#xec;" d="M13 0l37 190h395l136 702h-290l37 190h571l-173 -892h353l-37 -190h-1029zM450 1415l8 43h258l205 -243l-6 -31h-170z" />
<glyph unicode="&#xed;" d="M13 0l37 190h395l136 702h-290l37 190h571l-173 -892h353l-37 -190h-1029zM596 1184l6 31l299 243h258l-8 -43l-385 -231h-170z" />
<glyph unicode="&#xee;" d="M13 0l37 190h395l136 702h-290l37 190h571l-173 -892h353l-37 -190h-1029zM381 1183l5 28l307 250h229l201 -250l-5 -28h-159l-177 134h-4l-237 -134h-160z" />
<glyph unicode="&#xef;" d="M13 0l37 190h395l136 702h-290l37 190h571l-173 -892h353l-37 -190h-1029zM462 1219l43 219h224l-43 -219h-224zM886 1219l43 219h227l-43 -219h-227z" />
<glyph unicode="&#xf0;" d="M59 354q0 29 3.5 60.5t9.5 64.5q21 107 69 198.5t125.5 158.5t184.5 105t245 38q35 0 69.5 -5t60.5 -15q-19 66 -42 116t-56 101l-255 -102l-47 155l201 79q-48 46 -106 90t-118 86h293q36 -20 72 -43t70 -51l270 109l53 -154l-200 -79q87 -109 140 -243.5t53 -294.5 q0 -92 -19 -187l-1 -4q-24 -122 -74.5 -224.5t-129.5 -176.5t-187 -115t-245 -41q-112 0 -194.5 27t-137 76t-81 118t-26.5 153zM354 359q0 -98 44.5 -143.5t131.5 -45.5q62 0 110.5 17.5t85.5 55t62 95.5t41 139q7 36 10.5 68t3.5 59q0 94 -43 138t-137 44 q-125 0 -195.5 -75.5t-100.5 -233.5q-13 -65 -13 -118z" />
<glyph unicode="&#xf1;" d="M38 0l163 840q7 35 13.5 72t12 70.5t9 60t4.5 39.5h268q0 -12 -3 -38.5t-7 -58.5t-9 -64t-9 -54h4q80 123 177.5 179.5t215.5 56.5q141 0 206 -71.5t65 -201.5q0 -65 -15 -143l-134 -687h-280l120 619q15 74 15 127q0 75 -32 110.5t-101 35.5q-51 0 -97 -22.5t-84.5 -64 t-66 -99t-41.5 -126.5l-113 -580h-281zM359 1183q7 27 17 58.5t25 63t35.5 60.5t49.5 51.5t66.5 36t86.5 13.5q45 0 87 -17.5t79.5 -39t70.5 -39t62 -17.5q50 0 75.5 28t45.5 85h135q-10 -41 -27.5 -90.5t-49 -92t-80 -71.5t-121.5 -29q-44 0 -85 17.5t-79 39t-72 39 t-64 17.5q-26 0 -44.5 -7t-32 -21t-24 -35t-19.5 -50h-137z" />
<glyph unicode="&#xf2;" d="M76 383q0 38 4 77.5t12 81.5q24 121 74 223.5t128 177.5t185.5 117t245.5 42q118 0 200 -27.5t133.5 -77.5t74.5 -121t23 -157q0 -42 -5 -85.5t-14 -91.5q-24 -124 -75 -227t-130 -177.5t-186.5 -116t-244.5 -41.5q-109 0 -189.5 28.5t-132.5 81t-77.5 127t-25.5 166.5z M369 378q0 -107 42 -156.5t124 -49.5q62 0 111 21.5t86.5 66.5t64.5 115t46 167q10 51 15 94t5 79q0 101 -41 147.5t-130 46.5q-62 0 -110.5 -21.5t-85.5 -66.5t-63.5 -114t-45.5 -165q-18 -94 -18 -164zM447 1415l8 43h258l205 -243l-6 -31h-170z" />
<glyph unicode="&#xf3;" d="M76 383q0 38 4 77.5t12 81.5q24 121 74 223.5t128 177.5t185.5 117t245.5 42q118 0 200 -27.5t133.5 -77.5t74.5 -121t23 -157q0 -42 -5 -85.5t-14 -91.5q-24 -124 -75 -227t-130 -177.5t-186.5 -116t-244.5 -41.5q-109 0 -189.5 28.5t-132.5 81t-77.5 127t-25.5 166.5z M369 378q0 -107 42 -156.5t124 -49.5q62 0 111 21.5t86.5 66.5t64.5 115t46 167q10 51 15 94t5 79q0 101 -41 147.5t-130 46.5q-62 0 -110.5 -21.5t-85.5 -66.5t-63.5 -114t-45.5 -165q-18 -94 -18 -164zM593 1184l6 31l299 243h258l-8 -43l-385 -231h-170z" />
<glyph unicode="&#xf4;" d="M76 383q0 38 4 77.5t12 81.5q24 121 74 223.5t128 177.5t185.5 117t245.5 42q118 0 200 -27.5t133.5 -77.5t74.5 -121t23 -157q0 -42 -5 -85.5t-14 -91.5q-24 -124 -75 -227t-130 -177.5t-186.5 -116t-244.5 -41.5q-109 0 -189.5 28.5t-132.5 81t-77.5 127t-25.5 166.5z M369 378q0 -107 42 -156.5t124 -49.5q62 0 111 21.5t86.5 66.5t64.5 115t46 167q10 51 15 94t5 79q0 101 -41 147.5t-130 46.5q-62 0 -110.5 -21.5t-85.5 -66.5t-63.5 -114t-45.5 -165q-18 -94 -18 -164zM371 1183l5 28l307 250h229l201 -250l-5 -28h-159l-177 134h-4 l-237 -134h-160z" />
<glyph unicode="&#xf5;" d="M76 383q0 38 4 77.5t12 81.5q24 121 74 223.5t128 177.5t185.5 117t245.5 42q118 0 200 -27.5t133.5 -77.5t74.5 -121t23 -157q0 -42 -5 -85.5t-14 -91.5q-24 -124 -75 -227t-130 -177.5t-186.5 -116t-244.5 -41.5q-109 0 -189.5 28.5t-132.5 81t-77.5 127t-25.5 166.5z M349 1183q7 27 17 58.5t25 63t35.5 60.5t49.5 51.5t66.5 36t86.5 13.5q45 0 87 -17.5t79.5 -39t70.5 -39t62 -17.5q50 0 75.5 28t45.5 85h135q-10 -41 -27.5 -90.5t-49 -92t-80 -71.5t-121.5 -29q-44 0 -85 17.5t-79 39t-72 39t-64 17.5q-26 0 -44.5 -7t-32 -21t-24 -35 t-19.5 -50h-137zM369 378q0 -107 42 -156.5t124 -49.5q62 0 111 21.5t86.5 66.5t64.5 115t46 167q10 51 15 94t5 79q0 101 -41 147.5t-130 46.5q-62 0 -110.5 -21.5t-85.5 -66.5t-63.5 -114t-45.5 -165q-18 -94 -18 -164z" />
<glyph unicode="&#xf6;" d="M76 383q0 38 4 77.5t12 81.5q24 121 74 223.5t128 177.5t185.5 117t245.5 42q118 0 200 -27.5t133.5 -77.5t74.5 -121t23 -157q0 -42 -5 -85.5t-14 -91.5q-24 -124 -75 -227t-130 -177.5t-186.5 -116t-244.5 -41.5q-109 0 -189.5 28.5t-132.5 81t-77.5 127t-25.5 166.5z M369 378q0 -107 42 -156.5t124 -49.5q62 0 111 21.5t86.5 66.5t64.5 115t46 167q10 51 15 94t5 79q0 101 -41 147.5t-130 46.5q-62 0 -110.5 -21.5t-85.5 -66.5t-63.5 -114t-45.5 -165q-18 -94 -18 -164zM421 1219l43 219h224l-43 -219h-224zM845 1219l43 219h227l-43 -219 h-227z" />
<glyph unicode="&#xf7;" d="M101 569v224h1027v-224h-1027zM495 170v233h239v-233h-239zM495 961v233h239v-233h-239z" />
<glyph unicode="&#xf8;" d="M7 58l116 107q-47 90 -47 217q0 77 16 160q24 121 74 223.5t128 177.5t185.5 117t245.5 42q107 0 184 -22.5t128 -64.5l97 89l82 -78l-106 -98q24 -44 35 -97t11 -113q0 -42 -5 -85.5t-14 -90.5q-24 -124 -75 -227t-130 -177.5t-186.5 -116t-244.5 -41.5 q-103 0 -179.5 25t-129.5 72l-104 -97zM369 394l472 438q-38 77 -149 77q-62 0 -110.5 -21.5t-85.5 -66.5t-63.5 -114t-45.5 -165q-16 -84 -18 -148zM388 259q38 -87 147 -87q62 0 111 21.5t86.5 66.5t64.5 115t46 167q9 45 13.5 84t6.5 72z" />
<glyph unicode="&#xf9;" d="M92 253q0 67 15 142l133 687h281l-118 -607q-12 -63 -12 -115q0 -78 30 -124t99 -46q43 0 85.5 22.5t78.5 64t63.5 99t40.5 126.5l112 580h281l-163 -840q-7 -34 -13.5 -71.5t-11.5 -71t-9 -60t-5 -39.5h-268q1 12 4 38.5t7.5 58.5t9.5 64t9 54h-5q-80 -123 -175 -179 t-199 -56q-74 0 -125.5 20t-83.5 56t-46.5 86t-14.5 111zM423 1415l8 43h258l205 -243l-6 -31h-170z" />
<glyph unicode="&#xfa;" d="M92 253q0 67 15 142l133 687h281l-118 -607q-12 -63 -12 -115q0 -78 30 -124t99 -46q43 0 85.5 22.5t78.5 64t63.5 99t40.5 126.5l112 580h281l-163 -840q-7 -34 -13.5 -71.5t-11.5 -71t-9 -60t-5 -39.5h-268q1 12 4 38.5t7.5 58.5t9.5 64t9 54h-5q-80 -123 -175 -179 t-199 -56q-74 0 -125.5 20t-83.5 56t-46.5 86t-14.5 111zM582 1184l6 31l299 243h258l-8 -43l-385 -231h-170z" />
<glyph unicode="&#xfb;" d="M92 253q0 67 15 142l133 687h281l-118 -607q-12 -63 -12 -115q0 -78 30 -124t99 -46q43 0 85.5 22.5t78.5 64t63.5 99t40.5 126.5l112 580h281l-163 -840q-7 -34 -13.5 -71.5t-11.5 -71t-9 -60t-5 -39.5h-268q1 12 4 38.5t7.5 58.5t9.5 64t9 54h-5q-80 -123 -175 -179 t-199 -56q-74 0 -125.5 20t-83.5 56t-46.5 86t-14.5 111zM371 1183l5 28l307 250h229l201 -250l-5 -28h-159l-177 134h-4l-237 -134h-160z" />
<glyph unicode="&#xfc;" d="M92 253q0 67 15 142l133 687h281l-118 -607q-12 -63 -12 -115q0 -78 30 -124t99 -46q43 0 85.5 22.5t78.5 64t63.5 99t40.5 126.5l112 580h281l-163 -840q-7 -34 -13.5 -71.5t-11.5 -71t-9 -60t-5 -39.5h-268q1 12 4 38.5t7.5 58.5t9.5 64t9 54h-5q-80 -123 -175 -179 t-199 -56q-74 0 -125.5 20t-83.5 56t-46.5 86t-14.5 111zM421 1219l43 219h224l-43 -219h-224zM845 1219l43 219h227l-43 -219h-227z" />
<glyph unicode="&#xfd;" d="M-42 -412l39 200q10 -2 23 -3t26.5 -2.5t27 -2t23.5 -0.5q41 0 74.5 9t64 30t60 56t60.5 88l27 48l-240 1071h297l88 -527q2 -11 5.5 -37t7 -59.5t7.5 -70.5t7.5 -70.5t6 -59.5t2.5 -37q5 11 16.5 36.5t26.5 58t32 68.5t32.5 69t28 59.5t18.5 38.5l283 531h294 l-669 -1139q-56 -95 -109.5 -164.5t-111 -114.5t-123 -67t-145.5 -22q-44 0 -92 3t-87 10zM599 1184l6 31l299 243h258l-8 -43l-385 -231h-170z" />
<glyph unicode="&#xfe;" d="M-45 -425l371 1909h281l-80 -412q-5 -30 -12 -60t-12 -54q-6 -28 -12 -54h4q75 100 165.5 149.5t193.5 49.5q75 0 130.5 -25.5t92 -73t54.5 -114.5t18 -150q0 -90 -21 -195q-24 -125 -69.5 -229t-110 -178.5t-147.5 -116t-183 -41.5q-40 0 -80.5 10t-76 32.5t-64 59 t-45.5 90.5h-6q0 -5 -2.5 -25t-7 -46.5t-9.5 -56t-10 -54.5l-81 -415h-281zM404 393q0 -59 12 -101t33.5 -68.5t50.5 -39t62 -12.5q109 0 178.5 94.5t104.5 278.5q18 92 18 161q0 97 -37 149.5t-119 52.5q-42 0 -85 -20t-81.5 -64t-70 -115t-51.5 -172q-8 -42 -11.5 -77.5 t-3.5 -66.5z" />
<glyph unicode="&#xff;" d="M-42 -412l39 200q10 -2 23 -3t26.5 -2.5t27 -2t23.5 -0.5q41 0 74.5 9t64 30t60 56t60.5 88l27 48l-240 1071h297l88 -527q2 -11 5.5 -37t7 -59.5t7.5 -70.5t7.5 -70.5t6 -59.5t2.5 -37q5 11 16.5 36.5t26.5 58t32 68.5t32.5 69t28 59.5t18.5 38.5l283 531h294 l-669 -1139q-56 -95 -109.5 -164.5t-111 -114.5t-123 -67t-145.5 -22q-44 0 -92 3t-87 10zM426 1219l43 219h224l-43 -219h-224zM850 1219l43 219h227l-43 -219h-227z" />
<glyph unicode="&#x152;" d="M27 406q0 121 30 275q35 180 90.5 308t133 209t177 119t223.5 38q39 0 88 -6h558l-39 -202h-313l-69 -355h287l-39 -200h-287l-76 -390h354l-39 -202h-612q-24 -2 -42.5 -3.5t-36.5 -1.5q-199 0 -293.5 101t-94.5 310zM290 431q0 -67 12 -113.5t33.5 -74.5t52 -40.5 t66.5 -12.5q14 0 39.5 1t45.5 5l186 957q-18 3 -43 4.5t-39 1.5q-52 0 -98.5 -21t-87.5 -75t-75.5 -146.5t-62.5 -235.5q-15 -77 -22 -138.5t-7 -111.5z" />
<glyph unicode="&#x153;" d="M2 307q0 51 6.5 109.5t19.5 125.5q55 279 167 419.5t274 140.5q187 0 232 -177q63 94 137.5 135.5t155.5 41.5q65 0 109.5 -22.5t73 -64t41 -99.5t12.5 -129q0 -115 -29 -260l-8 -43h-472q-8 -41 -12 -77t-4 -68q0 -79 25 -124t78 -45q51 0 83.5 33t59.5 98l169 -45 q-20 -45 -49.5 -93.5t-71.5 -89t-98 -67t-128 -26.5q-182 0 -227 183q-60 -93 -135.5 -138t-166.5 -45q-115 0 -178.5 80.5t-63.5 246.5zM210 318q0 -43 6.5 -71.5t17.5 -46t26.5 -25t34.5 -7.5q32 0 64 16.5t61 59t55.5 115t47.5 183.5q13 66 19 117.5t6 91.5 q0 47 -7.5 78.5t-21 50t-32.5 26.5t-41 8q-32 0 -60.5 -17.5t-54.5 -60.5t-49.5 -114.5t-44.5 -179.5q-14 -72 -20.5 -127t-6.5 -97zM757 660h264q5 39 8 71t3 58q0 69 -20 97t-64 28q-21 0 -47 -8.5t-52 -35.5t-50 -77t-42 -133z" />
<glyph unicode="&#x178;" d="M160 1349h309l190 -566l414 566h309l-618 -793l-108 -556h-294l108 556zM465 1445l43 219h224l-43 -219h-224zM889 1445l43 219h227l-43 -219h-227z" />
<glyph unicode="&#x2c6;" d="M371 1183l5 28l307 250h229l201 -250l-5 -28h-159l-177 134h-4l-237 -134h-160z" />
<glyph unicode="&#x2dc;" d="M349 1183q7 27 17 58.5t25 63t35.5 60.5t49.5 51.5t66.5 36t86.5 13.5q45 0 87 -17.5t79.5 -39t70.5 -39t62 -17.5q50 0 75.5 28t45.5 85h135q-10 -41 -27.5 -90.5t-49 -92t-80 -71.5t-121.5 -29q-44 0 -85 17.5t-79 39t-72 39t-64 17.5q-26 0 -44.5 -7t-32 -21t-24 -35 t-19.5 -50h-137z" />
<glyph unicode="&#x2000;" horiz-adv-x="852" />
<glyph unicode="&#x2001;" horiz-adv-x="1705" />
<glyph unicode="&#x2002;" horiz-adv-x="852" />
<glyph unicode="&#x2003;" horiz-adv-x="1705" />
<glyph unicode="&#x2004;" horiz-adv-x="568" />
<glyph unicode="&#x2005;" horiz-adv-x="426" />
<glyph unicode="&#x2006;" horiz-adv-x="284" />
<glyph unicode="&#x2007;" horiz-adv-x="284" />
<glyph unicode="&#x2008;" horiz-adv-x="213" />
<glyph unicode="&#x2009;" horiz-adv-x="341" />
<glyph unicode="&#x200a;" horiz-adv-x="94" />
<glyph unicode="&#x2010;" d="M299 409l47 244h580l-47 -244h-580z" />
<glyph unicode="&#x2011;" d="M299 409l47 244h580l-47 -244h-580z" />
<glyph unicode="&#x2012;" d="M299 409l47 244h580l-47 -244h-580z" />
<glyph unicode="&#x2013;" d="M138 418l40 203h904l-40 -203h-904z" />
<glyph unicode="&#x2014;" d="M-34 418l40 203h1248l-40 -203h-1248z" />
<glyph unicode="&#x2018;" d="M430 862l431 622h183l-289 -622h-325z" />
<glyph unicode="&#x2019;" d="M432 862l289 622h325l-431 -622h-183z" />
<glyph unicode="&#x201a;" d="M143 -363l290 622h325l-432 -622h-183z" />
<glyph unicode="&#x201c;" d="M200 862l431 622h183l-289 -622h-325zM659 862l431 622h183l-289 -622h-325z" />
<glyph unicode="&#x201d;" d="M201 862l289 622h325l-431 -622h-183zM660 862l289 622h325l-431 -622h-183z" />
<glyph unicode="&#x201e;" d="M-38 -364l290 622h325l-432 -622h-183zM421 -364l290 622h325l-432 -622h-183z" />
<glyph unicode="&#x2022;" d="M343 625q0 14 1 28t4 28q12 61 45.5 114.5t80.5 93t104.5 62.5t117.5 23q54 0 98.5 -18t77 -50t50.5 -75t18 -94q0 -27 -6 -56q-12 -61 -45.5 -114.5t-81.5 -93.5t-106 -63.5t-119 -23.5q-53 0 -97 18t-75.5 50.5t-49 76t-17.5 94.5z" />
<glyph unicode="&#x2026;" d="M-46 0l59 305h258l-59 -305h-258zM386 0l59 305h256l-59 -305h-256zM816 0l59 305h258l-59 -305h-258z" />
<glyph unicode="&#x202f;" horiz-adv-x="341" />
<glyph unicode="&#x2039;" d="M349 502l13 71l330 367h236l-7 -37l-326 -366l186 -361l-7 -35h-238z" />
<glyph unicode="&#x203a;" d="M298 141l7 35l326 361l-182 366l7 37h236l186 -367l-13 -71l-329 -361h-238z" />
<glyph unicode="&#x205f;" horiz-adv-x="426" />
<glyph unicode="&#x20ac;" d="M55 460l28 144h131q1 8 2.5 18.5t3 21.5t3.5 20.5t3 14.5q2 9 4 21l6 22q2 12 4.5 21.5t3.5 14.5h-131l28 142h147q41 113 101.5 200.5t139 147.5t174.5 91t207 31q122 0 217.5 -34t167.5 -108l-171 -202q-51 49 -111 81t-137 32q-50 0 -93 -17.5t-78 -49.5t-63 -76 t-49 -98h370l-28 -141h-392q-4 -14 -9 -35.5t-9 -42.5t-6.5 -39.5t-3.5 -34.5h391l-28 -142h-373q2 -67 17.5 -115t41.5 -78.5t62 -44.5t79 -14q79 0 150.5 30.5t149.5 84.5l96 -184q-104 -81 -216 -121.5t-247 -40.5q-112 0 -194 33t-136 92.5t-80 142.5t-26 183 q0 7 0.5 14t0.5 15h-148z" />
<glyph unicode="&#x2122;" d="M0 1351v132h477v-132h-162v-509h-157v509h-158zM521 842v641h183l142 -372q3 -8 6 -19l6 -22q4 -12 6 -26q2 14 6 26l6 22q3 11 6 19l141 372h183v-641h-135v353l3 88q-5 -19 -10 -36q-5 -14 -9 -29t-7 -23l-136 -353h-97l-136 353q-3 8 -7 23t-9 29q-5 17 -10 35l3 -87 v-353h-135z" />
<glyph unicode="&#x25fc;" horiz-adv-x="1080" d="M0 0v1080h1080v-1080h-1080z" />
<glyph unicode="&#xfb01;" d="M68 0l173 892h-146l37 190h146l22 113q12 62 39 119.5t73.5 101.5t113.5 71t158 27q57 0 112 -9t90 -19l-36 -184q-33 8 -68 13.5t-73 5.5q-55 0 -86 -34.5t-48 -117.5l-17 -87h223l-37 -190h-223l-173 -892h-280zM703 0l210 1082h281l-210 -1082h-281zM951 1277l40 207 h281l-40 -207h-281z" />
<glyph unicode="&#xfb02;" d="M68 0l173 892h-146l37 190h146l22 113q12 62 39 119.5t73.5 101.5t113.5 71t158 27q57 0 112 -9t90 -19l-36 -184q-33 8 -68 13.5t-73 5.5q-55 0 -86 -34.5t-48 -117.5l-17 -87h223l-37 -190h-223l-173 -892h-280zM703 0l288 1484h281l-288 -1484h-281z" />
</font>
</defs>
</svg>
